<?xml version="1.0" encoding="UTF-8"?>
<svg width="24px" height="24px" viewBox="0 0 24 24" version="1.1" xmlns="http://www.w3.org/2000/svg" xmlns:xlink="http://www.w3.org/1999/xlink">
    <!-- Generator: Sketch 52.4 (67378) - http://www.bohemiancoding.com/sketch -->
    <title>address-book</title>
    <desc>Created with Sketch.</desc>
    <g id="address-book" stroke="none" stroke-width="1" fill="none" fill-rule="evenodd">
        <path d="M3.5,2 L19,2 C19.5522847,2 20,2.44771525 20,3 L20,21 C20,21.5522847 19.5522847,22 19,22 L3.5,22 C3.22385763,22 3,21.7761424 3,21.5 L3,2.5 C3,2.22385763 3.22385763,2 3.5,2 Z M5,4 L5,20 L6,20 L6,4 L5,4 Z M8,4 L8,20 L18,20 L18,4 L8,4 Z" id="Rectangle-2" fill="#000000" fill-rule="nonzero"></path>
        <circle id="Oval" fill="#000000" fill-rule="nonzero" cx="13" cy="10" r="2"></circle>
        <path d="M11,13 L15,13 C15.5522847,13 16,13.4477153 16,14 L16,16 L10,16 L10,14 C10,13.4477153 10.4477153,13 11,13 Z" id="Rectangle" fill="#000000" fill-rule="nonzero"></path>
    </g>
</svg>