<svg width="48" height="48" viewBox="0 0 48 48" fill="none" xmlns="http://www.w3.org/2000/svg">
<path d="M28.5159 3.87685C28.6449 3.3767 29.3552 3.3767 29.4842 3.87685L32.8225 16.8182C32.868 16.9944 33.0056 17.132 33.1818 17.1775L46.1232 20.5158C46.6233 20.6449 46.6233 21.3551 46.1232 21.4841L33.1818 24.8225C33.0056 24.8679 32.868 25.0055 32.8225 25.1817L29.4842 38.1231C29.3552 38.6233 28.6449 38.6233 28.5159 38.1231L25.1775 25.1817C25.1321 25.0055 24.9945 24.8679 24.8183 24.8225L11.8769 21.4841C11.3767 21.3551 11.3767 20.6449 11.8769 20.5158L24.8183 17.1775C24.9945 17.132 25.1321 16.9944 25.1775 16.8182L28.5159 3.87685Z" fill="#393939"/>
<path d="M12.5159 25.8769C12.6449 25.3767 13.3552 25.3767 13.4842 25.8769L15.3871 33.2537C15.4325 33.4299 15.5701 33.5675 15.7463 33.613L23.1232 35.5159C23.6233 35.6449 23.6233 36.3552 23.1232 36.4842L15.7463 38.3871C15.5701 38.4325 15.4325 38.5701 15.3871 38.7463L13.4842 46.1232C13.3552 46.6233 12.6449 46.6233 12.5159 46.1232L10.613 38.7463C10.5675 38.5701 10.4299 38.4325 10.2537 38.3871L2.87688 36.4842C2.37673 36.3552 2.37673 35.6449 2.87688 35.5159L10.2537 33.613C10.4299 33.5675 10.5675 33.4299 10.613 33.2537L12.5159 25.8769Z" fill="#393939"/>
<path d="M9.51587 2.87685C9.64489 2.3767 10.3552 2.3767 10.4842 2.87685L11.7719 7.86885C11.8174 8.04506 11.955 8.18266 12.1312 8.22811L17.1232 9.51584C17.6233 9.64486 17.6233 10.3551 17.1232 10.4841L12.1312 11.7719C11.955 11.8173 11.8174 11.9549 11.7719 12.1311L10.4842 17.1231C10.3552 17.6233 9.64489 17.6233 9.51587 17.1231L8.22814 12.1311C8.18269 11.9549 8.04509 11.8173 7.86888 11.7719L2.87688 10.4841C2.37673 10.3551 2.37673 9.64486 2.87688 9.51584L7.86888 8.22811C8.04509 8.18266 8.18269 8.04506 8.22814 7.86885L9.51587 2.87685Z" fill="#393939"/>
</svg>
