<svg xmlns="http://www.w3.org/2000/svg" width="24" height="24" viewBox="0 0 24 24">
  <path d="M9.20647188,15 L7.26019479,15 L7.96019479,18 L9.90647188,18 L9.20647188,15 Z M11.2839391,15.1017612 L11.9738412,18.0584847 C11.991223,18.1329781 12,18.2092199 12,18.2857143 C12,19.2176591 11.2698151,20 10.3333333,20 L7.66666667,20 C6.77686508,20 6.07330669,19.2937089 6.0053779,18.4238829 L5.20647188,15 L5,15 C4.44771525,15 4,14.5522847 4,14 L4,8 C4,7.44771525 4.44771525,7 5,7 L9.78778555,7 L18.5938615,3.08618845 C19.2551489,2.79228294 20,3.27634161 20,4 L20,16 C20,16.6505712 19.3886111,17.1279292 18.7574644,16.9701425 L11.2839391,15.1017612 Z M10.4061385,8.91381155 C10.2782795,8.97063777 10.1399183,9 10,9 L6,9 L6,13 L11,13 C11.0817618,13 11.163215,13.0100273 11.2425356,13.0298575 L18,14.7192236 L18,5.53876198 L10.4061385,8.91381155 Z"/>
</svg>
