<svg width="48" height="48" viewBox="0 0 48 48" fill="none" xmlns="http://www.w3.org/2000/svg">
<path fill-rule="evenodd" clip-rule="evenodd" d="M21.9522 11.2905L14.8076 18.435C14.4171 18.8256 13.7839 18.8256 13.3934 18.435L11.9792 17.0208C11.5887 16.6303 11.5887 15.9971 11.9792 15.6066L23.2929 4.29289C23.6834 3.90237 24.3166 3.90237 24.7071 4.29289L36.0208 15.6066C36.4113 15.9971 36.4113 16.6303 36.0208 17.0208L34.6066 18.435C34.2161 18.8256 33.5829 18.8256 33.1924 18.435L25.9522 11.1948L25.9522 43.021C25.9522 43.5733 25.5045 44.021 24.9522 44.021H22.9522C22.3999 44.021 21.9522 43.5733 21.9522 43.021L21.9522 11.2905Z" fill="#393939"/>
</svg>
