<svg width="48" height="48" viewBox="0 0 48 48" fill="none" xmlns="http://www.w3.org/2000/svg">
<path d="M43.7072 23.3444C44.0976 23.7349 44.0976 24.368 43.7072 24.7585L32.3937 36.073C32.0033 36.4632 31.3701 36.4631 30.9796 36.073L29.5656 34.6579C29.175 34.2674 29.175 33.6344 29.5656 33.2439L36.8058 26.0036L4.97963 26.0036C4.42734 26.0036 3.97963 25.5559 3.97963 25.0036L3.97963 23.0036C3.97976 22.4515 4.42742 22.0036 4.97963 22.0036L36.7101 22.0036L29.5656 14.8591C29.175 14.4686 29.175 13.8355 29.5656 13.445L30.9796 12.031C31.3702 11.6406 32.0032 11.6405 32.3937 12.031L43.7072 23.3444Z" fill="#393939"/>
</svg>
