<svg width="48" height="48" viewBox="0 0 48 48" fill="none" xmlns="http://www.w3.org/2000/svg">
<path fill-rule="evenodd" clip-rule="evenodd" d="M24 38.7556L33.1924 29.5632C33.5829 29.1727 34.2161 29.1727 34.6066 29.5632L36.0208 30.9774C36.4113 31.368 36.4113 32.0011 36.0208 32.3916L24.7071 43.7054C24.3166 44.0959 23.6834 44.0959 23.2929 43.7054L11.9792 32.3916C11.5887 32.0011 11.5887 31.368 11.9792 30.9774L13.3934 29.5632C13.7839 29.1727 14.4171 29.1727 14.8076 29.5632L24 38.7556Z" fill="#393939"/>
<path fill-rule="evenodd" clip-rule="evenodd" d="M24 9.24265L14.8076 18.435C14.4171 18.8256 13.7839 18.8256 13.3934 18.435L11.9792 17.0208C11.5887 16.6303 11.5887 15.9971 11.9792 15.6066L23.2929 4.29291C23.6834 3.90238 24.3166 3.90238 24.7071 4.29291L36.0208 15.6066C36.4113 15.9971 36.4113 16.6303 36.0208 17.0208L34.6066 18.435C34.2161 18.8256 33.5829 18.8256 33.1924 18.435L24 9.24265Z" fill="#393939"/>
</svg>
