<svg width="49" height="48" viewBox="0 0 49 48" fill="none" xmlns="http://www.w3.org/2000/svg">
<path fill-rule="evenodd" clip-rule="evenodd" d="M22.4746 36.7305L15.3301 29.586C14.9396 29.1954 14.3064 29.1954 13.9159 29.586L12.5016 31.0002C12.1111 31.3907 12.1111 32.0239 12.5016 32.4144L23.8154 43.7281C24.2059 44.1186 24.839 44.1186 25.2296 43.7281L36.5433 32.4144C36.9338 32.0239 36.9338 31.3907 36.5433 31.0002L35.1291 29.586C34.7385 29.1954 34.1054 29.1954 33.7148 29.586L26.4746 36.8262L26.4746 5.00001C26.4746 4.44772 26.0269 4.00001 25.4746 4.00001H23.4746C22.9224 4.00001 22.4746 4.44772 22.4746 5.00001L22.4746 36.7305Z" fill="#393939"/>
</svg>
