<svg width="16" height="16" viewBox="0 0 16 16" fill="none" xmlns="http://www.w3.org/2000/svg">
<path d="M2 2.66667C2 2.29848 2.29848 2 2.66667 2H5.33333C5.70152 2 6 2.29848 6 2.66667V4C6 4.36819 5.70152 4.66667 5.33333 4.66667H2.66667C2.29848 4.66667 2 4.36819 2 4V2.66667ZM10 7.33333C10 6.96514 10.2985 6.66667 10.6667 6.66667H13.3333C13.7015 6.66667 14 6.96514 14 7.33333V8.66667C14 9.03486 13.7015 9.33333 13.3333 9.33333H10.6667C10.2985 9.33333 10 9.03486 10 8.66667V7.33333ZM10 12C10 11.6318 10.2985 11.3333 10.6667 11.3333H13.3333C13.7015 11.3333 14 11.6318 14 12V13.3333C14 13.7015 13.7015 14 13.3333 14H10.6667C10.2985 14 10 13.7015 10 13.3333V12ZM8.66667 8.66667H4.66667V12H8.66667V13.3333H4.66667H4C3.63181 13.3333 3.33333 13.0349 3.33333 12.6667V6H4.66667V7.33333H8.66667V8.66667Z" fill="#393939"/>
</svg>
