<svg xmlns="http://www.w3.org/2000/svg" width="24" height="24" viewBox="0 0 24 24">
  <path d="M7,14.8571429 L7,7 C7,5.34314575 8.34314575,4 10,4 C11.6568542,4 13,5.34314575 13,7 L13,14 C13,14.5522847 12.5522847,15 12,15 C11.4477153,15 11,14.5522847 11,14 L11,8.5 L11,8.5 C11,8.22385763 10.7761424,8 10.5,8 L9.5,8 L9.5,8 C9.22385763,8 9,8.22385763 9,8.5 L9,14 C9,15.6568542 10.3431458,17 12,17 C13.6568542,17 15,15.6568542 15,14 L15,7 C15,4.23857625 12.7614237,2 10,2 C7.23857625,2 5,4.23857625 5,7 L5,14.7777778 C5,18.766501 8.13400675,22 12,22 C15.8659932,22 19,18.766501 19,14.7777778 L18.9996166,8.5 L18.9995861,8.5 C18.9995692,8.22386955 18.7757165,8.00003054 18.4995861,8.00003054 L17.5,8 L17.5,8 C17.2238576,8 17,8.22385763 17,8.5 L17,14.8571429 C17,17.6974644 14.7614237,20 12,20 C9.23857625,20 7,17.6974644 7,14.8571429 Z"/>
</svg>
