<svg width="24" height="24" viewBox="0 0 24 24" xmlns="http://www.w3.org/2000/svg">
<path d="M10.75 6.42857C10.75 6.19188 10.9987 6 11.3056 6H12.6944C13.0013 6 13.25 6.19188 13.25 6.42857V13.7143C13.25 13.951 13.0013 14.1429 12.6944 14.1429H11.3056C10.9987 14.1429 10.75 13.951 10.75 13.7143V6.42857Z"/>
<path d="M10.75 16.2857C10.75 16.049 10.9987 15.8571 11.3056 15.8571H12.6944C13.0013 15.8571 13.25 16.049 13.25 16.2857V17.5714C13.25 17.8081 13.0013 18 12.6944 18H11.3056C10.9987 18 10.75 17.8081 10.75 17.5714V16.2857Z"/>
</svg>
