<svg xmlns="http://www.w3.org/2000/svg" width="24" height="24" viewBox="0 0 24 24">
  <path fill-rule="evenodd" d="M20,12 L20,18 C20,18.5522847 19.5522847,19 19,19 L5,19 C4.44771525,19 4,18.5522847 4,18 L4,12 C4,8.26683476 6.55705592,5.13090193 10.0152409,4.24812832 C10.005181,4.16683033 10,4.08402021 10,4 C10,2.8954305 10.8954305,2 12,2 C13.1045695,2 14,2.8954305 14,4 C14,4.08402021 13.994819,4.16683033 13.9847591,4.24812832 C17.4429441,5.13090193 20,8.26683476 20,12 Z M18,17 L18,12 C18,8.6862915 15.3137085,6 12,6 C8.6862915,6 6,8.6862915 6,12 L6,17 L18,17 Z M10,20 L14,20 C14,21.1045695 13.1045695,22 12,22 C10.8954305,22 10,21.1045695 10,20 Z"/>
</svg>
