<svg xmlns="http://www.w3.org/2000/svg" width="24" height="24" viewBox="0 0 24 24">
  <path d="M13,18.142805 L18,15.330305 L18,9.72317968 L13,12.5803225 L13,18.142805 Z M11,18.142805 L11,12.5803225 L6,9.72317968 L6,15.330305 L11,18.142805 Z M16.8976224,8.04960755 L12,5.29469497 L7.10237764,8.04960755 L12,10.8482489 L16.8976224,8.04960755 Z M12.2451306,3.13788597 L19.7451306,7.35663597 C19.9025691,7.44519512 20,7.61178709 20,7.79242374 L20,16.2075763 C20,16.3882129 19.9025691,16.5548049 19.7451306,16.643364 L12.2451306,20.862114 L12.2451306,20.862114 C12.0929238,20.9477303 11.9070762,20.9477303 11.7548694,20.862114 L4.25486938,16.643364 L4.25486938,16.643364 C4.09743089,16.5548049 4,16.3882129 4,16.2075763 L4,7.79242374 L4,7.79242374 C4,7.61178709 4.09743089,7.44519512 4.25486938,7.35663597 L11.7548694,3.13788597 L11.7548694,3.13788597 C11.9070762,3.05226967 12.0929238,3.05226967 12.2451306,3.13788597 L12.2451306,3.13788597 Z"/>
</svg>
