<?xml version="1.0" encoding="UTF-8"?>
<svg width="24px" height="24px" viewBox="0 0 24 24" version="1.1" xmlns="http://www.w3.org/2000/svg" xmlns:xlink="http://www.w3.org/1999/xlink">
    <!-- Generator: Sketch 52.4 (67378) - http://www.bohemiancoding.com/sketch -->
    <title>cad</title>
    <desc>Created with Sketch.</desc>
    <g id="cad" stroke="none" stroke-width="1" fill="none" fill-rule="evenodd">
        <path d="M4,2 L16.9891968,2 L21,6.17947824 L21,20.5714286 C21,21.3604068 20.5522847,22 20,22 L4,22 C3.44771525,22 3,21.3604068 3,20.5714286 L3,3.42857143 C3,2.63959321 3.44771525,2 4,2 Z M4.99536133,4.00024414 L4.99536133,20.0291748 L19.0252887,20.0291748 L19.0252887,7.06243896 L16,7 L16.0358887,4.00024414 L4.99536133,4.00024414 Z M8.80517578,18.0849609 C8.22118849,18.0849609 7.77295078,17.8906269 7.46044922,17.5019531 C7.14990079,17.1113262 6.99462891,16.5498083 6.99462891,15.8173828 C6.99462891,15.081051 7.14990079,14.5185566 7.46044922,14.1298828 C7.77295078,13.741209 8.22118849,13.546875 8.80517578,13.546875 C8.97509851,13.546875 9.13622971,13.5644529 9.28857422,13.5996094 C9.44091873,13.6347658 9.58349543,13.6874996 9.71630859,13.7578125 L9.71630859,14.71875 C9.62841753,14.6367183 9.54980503,14.5727541 9.48046875,14.5268555 C9.41113247,14.4809568 9.34521516,14.4443361 9.28271484,14.4169922 C9.20849572,14.3837889 9.13574254,14.3598634 9.06445312,14.3452148 C8.99316371,14.3305663 8.92138708,14.3232422 8.84912109,14.3232422 C8.53661953,14.3232422 8.29931722,14.4482409 8.13720703,14.6982422 C7.97509685,14.9541028 7.89404297,15.327146 7.89404297,15.8173828 C7.89404297,16.3095728 7.97509685,16.6806628 8.13720703,16.9306641 C8.29931722,17.1826184 8.53661953,17.3085938 8.84912109,17.3085938 C8.99951247,17.3085938 9.14501883,17.2763675 9.28564453,17.2119141 C9.35400425,17.1806639 9.42187466,17.1420901 9.48925781,17.0961914 C9.55664096,17.0502927 9.6323238,16.9892582 9.71630859,16.9130859 L9.71630859,17.8740234 C9.57958916,17.9443363 9.43603591,17.9970701 9.28564453,18.0322266 C9.13525315,18.067383 8.97509851,18.0849609 8.80517578,18.0849609 Z M11.4711914,13.6259766 L12.5288086,13.6259766 L13.7094727,18 L12.8452148,18 L12.5756836,16.9189453 L11.418457,16.9189453 L11.1547852,18 L10.2905273,18 L11.4711914,13.6259766 Z M12.4086914,16.2070312 L11.9985352,14.4169922 L11.5913086,16.2070312 L12.4086914,16.2070312 Z M14.2075195,13.6259766 L15.1333008,13.6259766 C15.8501012,13.6259766 16.3647445,13.7958967 16.6772461,14.1357422 C16.8315437,14.3037118 16.9487301,14.5258775 17.0288086,14.8022461 C17.1088871,15.0786147 17.1489258,15.4150371 17.1489258,15.8115234 C17.1489258,16.5830117 16.9917008,17.1406233 16.6772461,17.484375 C16.3627914,17.8281267 15.8481481,18 15.1333008,18 L14.2075195,18 L14.2075195,13.6259766 Z M15.3061523,17.2207031 C15.6459978,17.2207031 15.8881829,17.1132823 16.0327148,16.8984375 C16.1772468,16.6835927 16.2495117,16.3203151 16.2495117,15.8085938 C16.2495117,15.3007787 16.1772468,14.9394542 16.0327148,14.7246094 C15.890136,14.5117177 15.6479509,14.4052734 15.3061523,14.4052734 L15.0717773,14.4052734 L15.0717773,17.2207031 L15.3061523,17.2207031 Z" id="Combined-Shape" fill="#000000" fill-rule="nonzero"></path>
    </g>
</svg>