<svg xmlns="http://www.w3.org/2000/svg" width="24" height="24" viewBox="0 0 24 24">
  <path d="M4.88888889,4 L19.1111111,4 C19.6020309,4 20,4.39796911 20,4.88888889 L20,19.1111111 C20,19.6020309 19.6020309,20 19.1111111,20 L4.88888889,20 C4.39796911,20 4,19.6020309 4,19.1111111 L4,4.88888889 C4,4.39796911 4.39796911,4 4.88888889,4 Z M6,8 L6,18 L18,18 L18,8 L6,8 Z M13.5,13 L16.5,13 C16.7761424,13 17,13.2238576 17,13.5 L17,16.5 C17,16.7761424 16.7761424,17 16.5,17 L13.5,17 C13.2238576,17 13,16.7761424 13,16.5 L13,13.5 C13,13.2238576 13.2238576,13 13.5,13 Z"/>
</svg>
