<?xml version="1.0" encoding="UTF-8"?>
<svg width="24px" height="24px" viewBox="0 0 24 24" version="1.1" xmlns="http://www.w3.org/2000/svg" xmlns:xlink="http://www.w3.org/1999/xlink">
    <!-- Generator: Sketch 52.4 (67378) - http://www.bohemiancoding.com/sketch -->
    <title>camera</title>
    <desc>Created with Sketch.</desc>
    <g id="camera" stroke="none" stroke-width="1" fill="none" fill-rule="evenodd">
        <path d="M6.8,6 L8,3 L16,3 L17.2,6 L21,6 C21.5522847,6 22,6.44771525 22,7 L22,19 C22,19.5522847 21.5522847,20 21,20 L3,20 C2.44771525,20 2,19.5522847 2,19 L2,7 C2,6.44771525 2.44771525,6 3,6 L6.8,6 Z M6,8 L4,8 L4,18 L20,18 L20,8 L18,8 L6,8 Z M9,6.00842285 L15.1123047,6.00842285 L14.7312012,5 L9.39611816,5 L9,6.00842285 Z M12,17 C9.790861,17 8,15.209139 8,13 C8,10.790861 9.790861,9 12,9 C14.209139,9 16,10.790861 16,13 C16,15.209139 14.209139,17 12,17 Z M12,15 C13.1045695,15 14,14.1045695 14,13 C14,11.8954305 13.1045695,11 12,11 C10.8954305,11 10,11.8954305 10,13 C10,14.1045695 10.8954305,15 12,15 Z" id="Combined-Shape" fill="#000000"></path>
    </g>
</svg>