<?xml version="1.0" encoding="UTF-8"?>
<svg width="24px" height="24px" viewBox="0 0 24 24" version="1.1" xmlns="http://www.w3.org/2000/svg" xmlns:xlink="http://www.w3.org/1999/xlink">
    <!-- Generator: Sketch 52.4 (67378) - http://www.bohemiancoding.com/sketch -->
    <title>camera-switch</title>
    <desc>Created with Sketch.</desc>
    <g id="camera-switch" stroke="none" stroke-width="1" fill="none" fill-rule="evenodd">
        <path d="M6.8,6 L8,3 L16,3 L17.2,6 L21,6 C21.5522847,6 22,6.44771525 22,7 L22,19 C22,19.5522847 21.5522847,20 21,20 L3,20 C2.44771525,20 2,19.5522847 2,19 L2,7 C2,6.44771525 2.44771525,6 3,6 L6.8,6 Z M6,8 L4,8 L4,18 L20,18 L20,8 L18,8 L6,8 Z M9,6.00842285 L15.1123047,6.00842285 L14.7312012,5 L9.39611816,5 L9,6.00842285 Z M9.75588499,12.3376879 L8.5,11.8959778 C8.85989222,10.7366972 9.69022446,9.75209874 10.8488523,9.28062405 C12.8125012,8.48156607 15.005703,9.44670089 15.8742593,11.4424837 L16.5,11.1878541 L15.7389043,13 L14.0294554,12.1931807 L14.6348932,11.9468128 C14.0317065,10.6738047 12.6040923,10.0688098 11.3230289,10.5901066 C10.5492741,10.9049669 9.99514093,11.5630942 9.75588499,12.3376879 Z M14.744115,13.6623121 L16,14.1040222 C15.6401078,15.2633028 14.8097755,16.2479013 13.6511477,16.719376 C11.6874988,17.5184339 9.49429695,16.5532991 8.62574066,14.5575163 L8,14.8121459 L8.7610957,13 L10.4705446,13.8068193 L9.86510683,14.0531872 C10.4682935,15.3261953 11.8959077,15.9311902 13.1769711,15.4098934 C13.9507259,15.0950331 14.5048591,14.4369058 14.744115,13.6623121 Z" id="Combined-Shape" fill="#000000"></path>
    </g>
</svg>