<svg width="48" height="48" viewBox="0 0 48 48" fill="none" xmlns="http://www.w3.org/2000/svg">
	<path fill-rule="evenodd" clip-rule="evenodd"
		d="M7 10C7 7.79086 8.79086 6 11 6H19C21.2091 6 23 7.79086 23 10V18C23 20.2091 21.2091 22 19 22H11C8.79086 22 7 20.2091 7 18V10ZM19 10H11V18H19V10ZM27 8C27 6.89543 27.8954 6 29 6H39C40.1046 6 41 6.89543 41 8C41 9.10457 40.1046 10 39 10H29C27.8954 10 27 9.10457 27 8ZM27 14C27 12.8954 27.8954 12 29 12H39C40.1046 12 41 12.8954 41 14C41 15.1046 40.1046 16 39 16H29C27.8954 16 27 15.1046 27 14ZM27 20C27 18.8954 27.8954 18 29 18H35C36.1046 18 37 18.8954 37 20C37 21.1046 36.1046 22 35 22H29C27.8954 22 27 21.1046 27 20ZM7 30C7 27.7909 8.79086 26 11 26H19C21.2091 26 23 27.7909 23 30V38C23 40.2091 21.2091 42 19 42H11C8.79086 42 7 40.2091 7 38V30ZM19 30H11V38H19V30ZM27 28C27 26.8954 27.8954 26 29 26H39C40.1046 26 41 26.8954 41 28C41 29.1046 40.1046 30 39 30H29C27.8954 30 27 29.1046 27 28ZM27 34C27 32.8954 27.8954 32 29 32H39C40.1046 32 41 32.8954 41 34C41 35.1046 40.1046 36 39 36H29C27.8954 36 27 35.1046 27 34ZM27 40C27 38.8954 27.8954 38 29 38H35C36.1046 38 37 38.8954 37 40C37 41.1046 36.1046 42 35 42H29C27.8954 42 27 41.1046 27 40Z"
		fill="#393939" />
</svg>
