<svg width="34" height="36" viewBox="0 0 34 36" fill="none" xmlns="http://www.w3.org/2000/svg">
<path fill-rule="evenodd" clip-rule="evenodd" d="M0 4C0 1.79086 1.79086 0 4 0H12C14.2091 0 16 1.79086 16 4V12C16 14.2091 14.2091 16 12 16H4C1.79086 16 0 14.2091 0 12V4ZM12 4H4V12H12V4ZM20 2C20 0.89543 20.8954 0 22 0H32C33.1046 0 34 0.89543 34 2C34 3.10457 33.1046 4 32 4H22C20.8954 4 20 3.10457 20 2ZM20 8C20 6.89543 20.8954 6 22 6H32C33.1046 6 34 6.89543 34 8C34 9.10457 33.1046 10 32 10H22C20.8954 10 20 9.10457 20 8ZM20 14C20 12.8954 20.8954 12 22 12H28C29.1046 12 30 12.8954 30 14C30 15.1046 29.1046 16 28 16H22C20.8954 16 20 15.1046 20 14ZM0 24C0 21.7909 1.79086 20 4 20H12C14.2091 20 16 21.7909 16 24V32C16 34.2091 14.2091 36 12 36H4C1.79086 36 0 34.2091 0 32V24ZM12 24H4V32H12V24ZM20 22C20 20.8954 20.8954 20 22 20H32C33.1046 20 34 20.8954 34 22C34 23.1046 33.1046 24 32 24H22C20.8954 24 20 23.1046 20 22ZM20 28C20 26.8954 20.8954 26 22 26H32C33.1046 26 34 26.8954 34 28C34 29.1046 33.1046 30 32 30H22C20.8954 30 20 29.1046 20 28ZM20 34C20 32.8954 20.8954 32 22 32H28C29.1046 32 30 32.8954 30 34C30 35.1046 29.1046 36 28 36H22C20.8954 36 20 35.1046 20 34Z" fill="#393939"/>
</svg>
