<svg xmlns="http://www.w3.org/2000/svg" width="24" height="24" viewBox="0 0 24 24">
  <path d="M19,18 L20.5,18 C20.7761424,18 21,18.2238576 21,18.5 L21,19.5 C21,19.7761424 20.7761424,20 20.5,20 L3.5,20 C3.22385763,20 3,19.7761424 3,19.5 L3,18.5 C3,18.2238576 3.22385763,18 3.5,18 L3.5,18 L5,18 L5,14.5 C5,14.2238576 5.22385763,14 5.5,14 L9,14 L9,10.5 C9,10.2238576 9.22385763,10 9.5,10 L13,10 L13,6.5 C13,6.22385763 13.2238576,6 13.5,6 L18.5,6 C18.7761424,6 19,6.22385763 19,6.5 L19,18 Z M7,18 L9,18 L9,16 L7,16 L7,18 Z M11,18 L13,18 L13,12 L11,12 L11,18 Z M15,8 L15,18 L17,18 L17,8 L15,8 Z M6.48550424,8.39912127 C7.25365309,7.93823196 7.89361165,7.40146184 8.36089797,6.81058718 L7,5.88161419 L11.3948468,4 L11.3948468,8.88161419 L9.99897906,7.92877025 C8.44357279,9.94865587 5.69711454,11.3816142 4,11.3816142 L4,9.38161419 C4.38381398,9.38161419 5.51116183,8.98372672 6.48550424,8.39912127 Z"/>
</svg>
