<svg width="24" height="24" viewBox="0 0 24 24" xmlns="http://www.w3.org/2000/svg">
<path fill-rule="evenodd" clip-rule="evenodd" d="M8.44452 8.0099C10.0218 6.46828 12.5501 6.49715 14.0917 8.07439C15.3904 9.40305 15.5746 11.4068 14.6574 12.927L14.6256 12.9796L16.4983 14.9179C16.6058 15.0291 16.6027 15.2063 16.4915 15.3138L15.4559 16.3144C15.3447 16.4218 15.1675 16.4188 15.06 16.3076L13.1762 14.3578L13.1229 14.3864C11.5958 15.2058 9.65198 14.9584 8.38003 13.6571C6.8384 12.0799 6.86728 9.55152 8.44452 8.0099ZM12.5732 12.2347C13.3289 11.496 13.3427 10.2846 12.6041 9.52883C11.8654 8.77311 10.654 8.75927 9.89823 9.49793C9.1425 10.2366 9.12866 11.448 9.86732 12.2038C10.606 12.9595 11.8174 12.9733 12.5732 12.2347Z"/>
<path fill-rule="evenodd" clip-rule="evenodd" d="M3 12C3 16.9706 7.02944 21 12 21C16.9706 21 21 16.9706 21 12C21 7.02944 16.9706 3 12 3C7.02944 3 3 7.02944 3 12ZM19 12C19 15.866 15.866 19 12 19C8.13401 19 5 15.866 5 12C5 8.13401 8.13401 5 12 5C15.866 5 19 8.13401 19 12Z"/>
</svg>
