<svg width="48" height="48" viewBox="0 0 48 48" fill="none" xmlns="http://www.w3.org/2000/svg">
<path d="M24 42C14.0589 42 6 33.9411 6 24C6 14.0589 14.0589 6 24 6C33.9411 6 42 14.0589 42 24C42 33.9411 33.9411 42 24 42ZM24 38C31.732 38 38 31.732 38 24C38 16.268 31.732 10 24 10C16.268 10 10 16.268 10 24C10 31.732 16.268 38 24 38ZM21.4853 25.1421L29.2635 17.364C29.654 16.9734 30.2871 16.9734 30.6777 17.364L32.0919 18.7782C32.4824 19.1687 32.4824 19.8019 32.0919 20.1924L22.1924 30.0919C21.8019 30.4824 21.1687 30.4824 20.7782 30.0919L15.7071 25.0208C15.3166 24.6303 15.3166 23.9971 15.7071 23.6066L17.1213 22.1924C17.5118 21.8019 18.145 21.8019 18.5355 22.1924L21.4853 25.1421Z" fill="#000000"/>
</svg>
