<svg width="24" height="24" viewBox="0 0 24 24"  xmlns="http://www.w3.org/2000/svg">
<path d="M5.63604 18.364C2.12132 14.8492 2.12132 9.15076 5.63604 5.63604C9.15076 2.12132 14.8492 2.12132 18.364 5.63604C21.8787 9.15076 21.8787 14.8492 18.364 18.364C14.8492 21.8787 9.15076 21.8787 5.63604 18.364ZM7.05025 16.9497C9.78392 19.6834 14.2161 19.6834 16.9497 16.9497C19.6834 14.2161 19.6834 9.78392 16.9497 7.05025C14.2161 4.31658 9.78392 4.31658 7.05025 7.05025C4.31658 9.78392 4.31658 14.2161 7.05025 16.9497ZM15.5 11C15.7761 11 16 11.2239 16 11.5L16 12.5C16 12.7761 15.7761 13 15.5 13C10.808 13 13.192 13 8.5 13C8.22386 13 8 12.7761 8 12.5L8 11.5C8 11.2239 8.22386 11 8.5 11C13.192 11 10.808 11 15.5 11Z"/>
</svg>
