<svg xmlns="http://www.w3.org/2000/svg" width="24" height="24" viewBox="0 0 24 24">
  <path d="M12,21 C7.02943725,21 3,16.9705627 3,12 C3,7.02943725 7.02943725,3 12,3 C16.9705627,3 21,7.02943725 21,12 C21,16.9705627 16.9705627,21 12,21 Z M12,19 C15.8659932,19 19,15.8659932 19,12 C19,8.13400675 15.8659932,5 12,5 C8.13400675,5 5,8.13400675 5,12 C5,15.8659932 8.13400675,19 12,19 Z M12,10.5857864 L13.767767,8.81801948 C13.9630291,8.62275734 14.2796116,8.62275734 14.4748737,8.81801948 L15.1819805,9.52512627 C15.3772427,9.72038841 15.3772427,10.0369709 15.1819805,10.232233 L13.4142136,12 L15.1819805,13.767767 C15.3772427,13.9630291 15.3772427,14.2796116 15.1819805,14.4748737 L14.4748737,15.1819805 C14.2796116,15.3772427 13.9630291,15.3772427 13.767767,15.1819805 L12,13.4142136 L10.232233,15.1819805 C10.0369709,15.3772427 9.72038841,15.3772427 9.52512627,15.1819805 L8.81801948,14.4748737 C8.62275734,14.2796116 8.62275734,13.9630291 8.81801948,13.767767 L10.5857864,12 L8.81801948,10.232233 C8.62275734,10.0369709 8.62275734,9.72038841 8.81801948,9.52512627 L9.52512627,8.81801948 C9.72038841,8.62275734 10.0369709,8.62275734 10.232233,8.81801948 L12,10.5857864 Z"/>
</svg>
