<svg xmlns="http://www.w3.org/2000/svg" width="24" height="24" viewBox="0 0 24 24">
  <path d="M12,21 C7.02943725,21 3,16.9705627 3,12 C3,7.02943725 7.02943725,3 12,3 C16.9705627,3 21,7.02943725 21,12 C21,16.9705627 16.9705627,21 12,21 Z M12,19 C15.8659932,19 19,15.8659932 19,12 C19,8.13400675 15.8659932,5 12,5 C8.13400675,5 5,8.13400675 5,12 C5,15.8659932 8.13400675,19 12,19 Z M10.7426407,12.5710678 L14.631728,8.68198052 C14.8269901,8.48671837 15.1435726,8.48671837 15.3388348,8.68198052 L16.0459415,9.3890873 C16.2412037,9.58434944 16.2412037,9.90093193 16.0459415,10.0961941 L11.0961941,15.0459415 C10.9009319,15.2412037 10.5843494,15.2412037 10.3890873,15.0459415 L7.85355339,12.5104076 C7.65829124,12.3151455 7.65829124,11.998563 7.85355339,11.8033009 L8.56066017,11.0961941 C8.75592232,10.9009319 9.07250481,10.9009319 9.26776695,11.0961941 L10.7426407,12.5710678 Z"/>
</svg>
