<svg xmlns="http://www.w3.org/2000/svg" width="24" height="24" viewBox="0 0 24 24">
  <path d="M12,21 C7.02943725,21 3,16.9705627 3,12 C3,7.02943725 7.02943725,3 12,3 C16.9705627,3 21,7.02943725 21,12 C21,16.9705627 16.9705627,21 12,21 Z M12,19 C15.8659932,19 19,15.8659932 19,12 C19,8.13400675 15.8659932,5 12,5 C8.13400675,5 5,8.13400675 5,12 C5,15.8659932 8.13400675,19 12,19 Z M11.5,15 L12.5,15 C12.7761424,15 13,15.2238576 13,15.5 L13,16.5 C13,16.7761424 12.7761424,17 12.5,17 L11.5,17 C11.2238576,17 11,16.7761424 11,16.5 L11,15.5 C11,15.2238576 11.2238576,15 11.5,15 Z M11,14 C11,13.3333333 11.3333333,12.6666667 12,12 C12.8260466,11.1739534 13.5,10.8284271 13.5,10 C13.5,9.17157288 12.8284271,8.5 12,8.5 C11.1715729,8.5 10.5,9.17157288 10.5,10 L9,10 C9,8.34314575 10.3431458,7 12,7 C13.6568542,7 15,8.344371 15,10 C15,12 13.4212272,12.446931 13.1999998,13 C13.0666666,13.3333333 13,13.6666667 13,14 L11,14 Z"/>
</svg>
