<svg width="24" height="24" viewBox="0 0 24 24" xmlns="http://www.w3.org/2000/svg">
<path d="M12 21C7.02944 21 3 16.9706 3 12C3 7.02944 7.02944 3 12 3C16.9706 3 21 7.02944 21 12C21 16.9706 16.9706 21 12 21ZM12 19C15.866 19 19 15.866 19 12C19 8.13401 15.866 5 12 5C8.13401 5 5 8.13401 5 12C5 15.866 8.13401 19 12 19Z"/>
<path fill-rule="evenodd" clip-rule="evenodd" d="M12.6041 9.52883C13.3427 10.2846 13.3289 11.496 12.5732 12.2347C11.8174 12.9733 10.606 12.9595 9.86732 12.2038C9.12866 11.448 9.1425 10.2366 9.89823 9.49793C10.654 8.75927 11.8654 8.77311 12.6041 9.52883ZM14.7257 12.9689C15.6613 11.4183 15.4735 9.37438 14.1488 8.01903C12.5762 6.41019 9.99726 6.38073 8.38842 7.95324C6.77958 9.52575 6.75012 12.1047 8.32263 13.7136C9.62015 15.0411 11.6029 15.2933 13.1605 14.4575L15.0023 16.3637C15.1405 16.5067 15.3684 16.5106 15.5113 16.3725L16.5469 15.3719C16.6899 15.2337 16.6938 15.0058 16.5557 14.8628L14.7257 12.9689Z"/>
</svg>
