<svg xmlns="http://www.w3.org/2000/svg" width="24" height="24" viewBox="0 0 24 24">
  <path fill-rule="evenodd" d="M12,10.5857864 L8.1109127,6.69669914 C7.91565056,6.501437 7.59906807,6.501437 7.40380592,6.69669914 L6.69669914,7.40380592 C6.501437,7.59906807 6.501437,7.91565056 6.69669914,8.1109127 L10.5857864,12 L6.69669914,15.8890873 C6.501437,16.0843494 6.501437,16.4009319 6.69669914,16.5961941 L7.40380592,17.3033009 C7.59906807,17.498563 7.91565056,17.498563 8.1109127,17.3033009 L12,13.4142136 L15.8890873,17.3033009 C16.0843494,17.498563 16.4009319,17.498563 16.5961941,17.3033009 L17.3033009,16.5961941 C17.498563,16.4009319 17.498563,16.0843494 17.3033009,15.8890873 L13.4142136,12 L17.3033009,8.1109127 C17.498563,7.91565056 17.498563,7.59906807 17.3033009,7.40380592 L16.5961941,6.69669914 C16.4009319,6.501437 16.0843494,6.501437 15.8890873,6.69669914 L12,10.5857864 Z"/>
</svg>
