<svg xmlns="http://www.w3.org/2000/svg" width="24" height="24" viewBox="0 0 24 24">
  <path d="M16,18 L16,18 L16,16 C18.209139,16 20,14.209139 20,12 C20,9.790861 18.209139,8 16,8 C15.9493946,8.00020821 15.9493946,8.00020821 15.899032,8.00124333 L15.1038094,8.02085283 L14.9058432,7.25041601 C14.5681612,5.93623907 13.3771751,5 12,5 C10.6228249,5 9.43183883,5.93623907 9.0941568,7.25041601 L8.89619056,8.02085283 L8.10096795,8.00124333 C8.05060539,8.00020821 8.05060539,8.00020821 8,8 C5.790861,8 4,9.790861 4,12 C4,14.209139 5.790861,16 8,16 L8,18 C4.6862915,18 2,15.3137085 2,12 C2,8.8876665 4.36971867,6.32881045 7.40328827,6.02929958 C8.17659614,4.22450692 9.9659671,3 12,3 C14.0340329,3 15.8234039,4.22450692 16.5967117,6.02929958 C19.6302813,6.32881045 22,8.8876665 22,12 C22,15.3137085 19.3137085,18 16,18 Z M13,17.5 L13.75,16.75 L15,18 L12.3535534,20.6464466 C12.1582912,20.8417088 11.8417088,20.8417088 11.6464466,20.6464466 L9,18 L10.25,16.75 L11,17.5 L11,12.5 C11,12.2238576 11.2238576,12 11.5,12 L12.5,12 C12.7761424,12 13,12.2238576 13,12.5 L13,17.5 Z"/>
</svg>
