<svg xmlns="http://www.w3.org/2000/svg" width="24" height="24" viewBox="0 0 24 24">
  <path d="M16,19 L16,19 L16,17 C18.209139,17 20,15.209139 20,13 C20,10.790861 18.209139,9 16,9 C15.9493946,9.00020821 15.9493946,9.00020821 15.899032,9.00124333 L15.1038094,9.02085283 L14.9058432,8.25041601 C14.5681612,6.93623907 13.3771751,6 12,6 C10.6228249,6 9.43183883,6.93623907 9.0941568,8.25041601 L8.89619056,9.02085283 L8.10096795,9.00124333 C8.05060539,9.00020821 8.05060539,9.00020821 8,9 C5.790861,9 4,10.790861 4,13 C4,15.209139 5.790861,17 8,17 L8,19 C4.6862915,19 2,16.3137085 2,13 C2,9.8876665 4.36971867,7.32881045 7.40328827,7.02929958 C8.17659614,5.22450692 9.9659671,4 12,4 C14.0340329,4 15.8234039,5.22450692 16.5967117,7.02929958 C19.6302813,7.32881045 22,9.8876665 22,13 C22,16.3137085 19.3137085,19 16,19 Z M13,15.5 L13,20.5 C13,20.7761424 12.7761424,21 12.5,21 L11.5,21 C11.2238576,21 11,20.7761424 11,20.5 L11,15.5 L10.25,16.25 L9,15 L11.6464466,12.3535534 C11.8417088,12.1582912 12.1582912,12.1582912 12.3535534,12.3535534 L15,15 L13.75,16.25 L13,15.5 Z"/>
</svg>
