<?xml version="1.0" encoding="UTF-8"?>
<svg width="24px" height="24px" viewBox="0 0 24 24" version="1.1" xmlns="http://www.w3.org/2000/svg" xmlns:xlink="http://www.w3.org/1999/xlink">
    <!-- Generator: Sketch 52.4 (67378) - http://www.bohemiancoding.com/sketch -->
    <title>column_hide</title>
    <desc>Created with Sketch.</desc>
    <g id="column_hide" stroke="none" stroke-width="1" fill="none" fill-rule="evenodd">
        <path d="M18,16 L18,8 L13.5,8 L12.5,16 L18,16 Z M13.75,6 L19.5,6 C19.7761424,6 20,6.22385763 20,6.5 L20,17.5 C20,17.7761424 19.7761424,18 19.5,18 L12.25,18 L12.0547478,19.5620174 C12.023471,19.8122318 11.8107705,20 11.5586089,20 L10.5663911,20 C10.2902487,20 10.0663911,19.7761424 10.0663911,19.5 C10.0663911,19.4792675 10.0676806,19.458555 10.0702522,19.4379826 L11.9452522,4.43798263 C11.976529,4.18776822 12.1892295,4 12.4413911,4 L13.4336089,4 C13.7097513,4 13.9336089,4.22385763 13.9336089,4.5 C13.9336089,4.52073251 13.9323194,4.54144495 13.9297478,4.56201737 L13.75,6 Z" id="Shape" fill="#000000" fill-rule="nonzero"></path>
        <path d="M10.5,8 L6,8 L6,16 L9.5,16 L9.25,18 L4.5,18 C4.22385763,18 4,17.7761424 4,17.5 L4,6.5 C4,6.22385763 4.22385763,6 4.5,6 L10.75,6 L10.5,8 Z" id="Path" fill="#000000" fill-rule="nonzero"></path>
    </g>
</svg>