<?xml version="1.0" encoding="UTF-8"?>
<svg width="24px" height="24px" viewBox="0 0 24 24" version="1.1" xmlns="http://www.w3.org/2000/svg" xmlns:xlink="http://www.w3.org/1999/xlink">
    <!-- Generator: Sketch 52.4 (67378) - http://www.bohemiancoding.com/sketch -->
    <title>column_fixleft</title>
    <desc>Created with Sketch.</desc>
    <g id="column_fixleft" stroke="none" stroke-width="1" fill="none" fill-rule="evenodd">
        <path d="M12,8 L6,8 L6,16 L12,16 L12,8 Z M12,18 L4.5,18 C4.22385763,18 4,17.7761424 4,17.5 L4,6.5 C4,6.22385763 4.22385763,6 4.5,6 L12,6 L12,4.5 C12,4.22385763 12.2238576,4 12.5,4 L13.5,4 C13.7761424,4 14,4.22385763 14,4.5 L14,19.5 C14,19.7761424 13.7761424,20 13.5,20 L12.5,20 C12.2238576,20 12,19.7761424 12,19.5 L12,18 Z M8,11 C8,10.4477153 8.44771525,10 9,10 C9.55228475,10 10,10.4477153 10,11 L11,11 L11,14 L7,14 L7,11 L8,11 Z M15,16 L18,16 L18,8 L15,8 L15,6 L19.5,6 C19.7761424,6 20,6.22385763 20,6.5 L20,17.5 C20,17.7761424 19.7761424,18 19.5,18 L15,18 L15,16 Z" id="Combined-Shape" fill="#000000" fill-rule="nonzero"></path>
    </g>
</svg>