<svg xmlns="http://www.w3.org/2000/svg" width="24" height="24" viewBox="0 0 24 24">
  <path d="M11,18 L17,18 L17,10 L11,10 L11,18 Z M9.5,8 L18,8 C18.5522847,8 19,8.44771525 19,9 L19,19 C19,19.5522847 18.5522847,20 18,20 L10,20 C9.44771525,20 9,19.5522847 9,19 L9,8.5 C9,8.22385763 9.22385763,8 9.5,8 Z M15,5.5 L15,5.5 C15,5.77614237 14.7761424,6 14.5,6 L14.5,6 L7,6 L7,17.5 C7,17.7761424 6.77614237,18 6.5,18 L6.5,18 L5.5,18 C5.22385763,18 5,17.7761424 5,17.5 L5,17.5 L5,5 C5,4.44771525 5.44771525,4 6,4 L14.5,4 C14.7761424,4 15,4.22385763 15,4.5 L15,4.5 L15,5.5 Z"/>
</svg>
