<?xml version="1.0" encoding="UTF-8"?>
<svg width="24px" height="24px" viewBox="0 0 24 24" version="1.1" xmlns="http://www.w3.org/2000/svg" xmlns:xlink="http://www.w3.org/1999/xlink">
    <!-- Generator: Sketch 52.4 (67378) - http://www.bohemiancoding.com/sketch -->
    <title>csv</title>
    <desc>Created with Sketch.</desc>
    <g id="csv" stroke="none" stroke-width="1" fill="none" fill-rule="evenodd">
        <path d="M4,2 L16.9891968,2 L21,6.17947824 L21,20.5714286 C21,21.3604068 20.5522847,22 20,22 L4,22 C3.44771525,22 3,21.3604068 3,20.5714286 L3,3.42857143 C3,2.63959321 3.44771525,2 4,2 Z M4.99536133,4.00024414 L4.99536133,20.0291748 L19.0252887,20.0291748 L19.0252887,7.06243896 L16,7 L16.0358887,4.00024414 L4.99536133,4.00024414 Z M10,15 C10,13.8954305 10.8954305,13 12,13 C13.1045695,13 14,13.8954305 14,15 C14,15.7126522 13.6408081,16.1852112 13.132782,16.7027588 C12.6247559,17.2203064 11.0189543,18.2402039 10.1982117,18.369751 C10.3046112,18.2937622 11.0189543,17.5843811 11.0189543,16.7432623 C10.4107157,16.4002313 10,15.7480795 10,15 Z" id="Combined-Shape" fill="#000000" fill-rule="nonzero"></path>
    </g>
</svg>