<svg xmlns="http://www.w3.org/2000/svg" width="24" height="24" viewBox="0 0 24 24">
  <path d="M3.5,3 L10.5,3 C10.7761424,3 11,3.22385763 11,3.5 L11,10.5 C11,10.7761424 10.7761424,11 10.5,11 L3.5,11 C3.22385763,11 3,10.7761424 3,10.5 L3,3.5 C3,3.22385763 3.22385763,3 3.5,3 Z M3.5,13 L10.5,13 C10.7761424,13 11,13.2238576 11,13.5 L11,20.5 C11,20.7761424 10.7761424,21 10.5,21 L3.5,21 C3.22385763,21 3,20.7761424 3,20.5 L3,13.5 C3,13.2238576 3.22385763,13 3.5,13 Z M13.5,3 L20.5,3 C20.7761424,3 21,3.22385763 21,3.5 L21,20.5 C21,20.7761424 20.7761424,21 20.5,21 L13.5,21 C13.2238576,21 13,20.7761424 13,20.5 L13,3.5 C13,3.22385763 13.2238576,3 13.5,3 Z M15,5 L15,19 L19,19 L19,5 L15,5 Z M5,5 L5,9 L9,9 L9,5 L5,5 Z M5,15 L5,19 L9,19 L9,15 L5,15 Z"/>
</svg>
