<svg xmlns="http://www.w3.org/2000/svg" width="24" height="24" viewBox="0 0 24 24">
  <path d="M5,19 L13,19 L13,10 L5,10 L5,19 Z M20,10 L21,10 L21,8 L17,8 L17,10 L18,10 L18,19 L20,19 L20,10 Z M13,3 L5,3 L5,2 L3,2 L3,6 L5,6 L5,5 L13,5 L13,6 L15,6 L15,2 L13,2 L13,3 Z M4,8 L14,8 C14.5522847,8 15,8.48502485 15,9.08333333 L15,19.9166667 C15,20.5149751 14.5522847,21 14,21 L4,21 C3.44771525,21 3,20.5149751 3,19.9166667 L3,9.08333333 C3,8.48502485 3.44771525,8 4,8 Z M17,19 L21,19 L21,21 L17,21 L17,19 Z"/>
</svg>
