<?xml version="1.0" encoding="UTF-8"?>
<svg width="24px" height="24px" viewBox="0 0 24 24" version="1.1" xmlns="http://www.w3.org/2000/svg" xmlns:xlink="http://www.w3.org/1999/xlink">
    <!-- Generator: Sketch 52.4 (67378) - http://www.bohemiancoding.com/sketch -->
    <title>doc</title>
    <desc>Created with Sketch.</desc>
    <g id="doc" stroke="none" stroke-width="1" fill="none" fill-rule="evenodd">
        <path d="M21,10 L19.0252887,10 L19.0252887,7.06243896 L16,7 L16.0358887,4.00024414 L4.99536133,4.00024414 L4.99536133,20.0291748 L19.0252887,20.0291748 L19.0252887,18 L21,18 L21,21 C21,21.7889782 20.5522847,22 20,22 L4,22 C3.44771525,22 3,21.7889782 3,21 L3,3 C3,2.21102179 3.44771525,2 4,2 L16.9891968,2 L21,6.17947824 L21,10 Z M7,11.1463415 L8.97633959,11.1463415 C10.4690327,11.1463415 11.3319415,12.1707317 11.3319415,13.9584707 C11.3319415,15.8134476 10.4794711,16.8536585 8.97633959,16.8536585 L7,16.8536585 L7,11.1463415 Z M8.05080028,12.1667765 L8.05080028,15.8332235 L8.80932498,15.8332235 C9.73834377,15.8332235 10.2602644,15.1845748 10.2602644,13.9782465 C10.2602644,12.8233355 9.72094641,12.1667765 8.80932498,12.1667765 L8.05080028,12.1667765 Z M13.8990953,11 C15.3778706,11 16.3138483,12.1509558 16.3138483,13.9980224 C16.3138483,15.8490442 15.38135,17 13.8990953,17 C12.4064022,17 11.4808629,15.8490442 11.4808629,13.9980224 C11.4808629,12.1470007 12.4203201,11 13.8990953,11 Z M13.8990953,12.0481213 C13.0814196,12.0481213 12.5560195,12.8035597 12.5560195,13.9980224 C12.5560195,15.18853 13.0709812,15.9518787 13.8990953,15.9518787 C14.716771,15.9518787 15.2386917,15.18853 15.2386917,13.9980224 C15.2386917,12.8035597 14.7132916,12.0481213 13.8990953,12.0481213 Z M18.8183716,17 C17.3639527,17 16.4627697,15.8569545 16.4627697,13.9980224 C16.4627697,12.1430455 17.3604732,11 18.8183716,11 C20.0083507,11 20.9199722,11.8978247 20.9965205,13.1397495 L19.973556,13.1397495 C19.8726514,12.4831905 19.4168406,12.0520765 18.8183716,12.0520765 C18.0285317,12.0520765 17.5379262,12.7956493 17.5379262,13.9980224 C17.5379262,15.2003955 18.0285317,15.9479235 18.8218511,15.9479235 C19.4237996,15.9479235 19.8761308,15.5444957 19.9770355,14.9156229 L21,14.9156229 C20.9130132,16.1496374 20.0292276,17 18.8183716,17 Z" id="Combined-Shape" fill="#000000" fill-rule="nonzero"></path>
    </g>
</svg>