<svg width="48" height="48" viewBox="0 0 48 48" fill="none" xmlns="http://www.w3.org/2000/svg">
<path fill-rule="evenodd" clip-rule="evenodd" d="M14 12C14 9.79086 15.7909 8 18 8C20.2091 8 22 9.79086 22 12C22 14.2091 20.2091 16 18 16C15.7909 16 14 14.2091 14 12ZM14 36C14 33.7909 15.7909 32 18 32C20.2091 32 22 33.7909 22 36C22 38.2091 20.2091 40 18 40C15.7909 40 14 38.2091 14 36ZM14 24C14 21.7909 15.7909 20 18 20C20.2091 20 22 21.7909 22 24C22 26.2091 20.2091 28 18 28C15.7909 28 14 26.2091 14 24Z" fill="#393939"/>
<path fill-rule="evenodd" clip-rule="evenodd" d="M26 12C26 9.79086 27.7909 8 30 8C32.2091 8 34 9.79086 34 12C34 14.2091 32.2091 16 30 16C27.7909 16 26 14.2091 26 12ZM26 36C26 33.7909 27.7909 32 30 32C32.2091 32 34 33.7909 34 36C34 38.2091 32.2091 40 30 40C27.7909 40 26 38.2091 26 36ZM26 24C26 21.7909 27.7909 20 30 20C32.2091 20 34 21.7909 34 24C34 26.2091 32.2091 28 30 28C27.7909 28 26 26.2091 26 24Z" fill="#393939"/>
</svg>
