<svg class="block size-full" fill="none" viewBox="0 0 16 16">
<path d="M2.33333 10.6878H3C3.18409 10.6878 3.33333 10.8371 3.33333 11.0212V12.6667H12.6667V3.33333H3.33333V5C3.33333 5.1841 3.18409 5.33333 3 5.33333H2.33333C2.14924 5.33333 2 5.1841 2 5V2.66667C2 2.29848 2.29848 2 2.66667 2H13.3333C13.7015 2 14 2.29848 14 2.66667V13.3333C14 13.7015 13.7015 14 13.3333 14H2.66667C2.29848 14 2 13.7015 2 13.3333V11.0212C2 10.8371 2.14924 10.6878 2.33333 10.6878ZM8.01383 7.33333V5.98381L10.6667 8L8 10L8.01383 8.66667H2.33333C2.14924 8.66667 2 8.51743 2 8.33333V7.66667C2 7.48257 2.14924 7.33333 2.33333 7.33333H8.01383Z" fill="#7f7f7f"></path>
</svg>
