<?xml version="1.0" encoding="UTF-8"?>
<svg width="24px" height="24px" viewBox="0 0 24 24" version="1.1" xmlns="http://www.w3.org/2000/svg" xmlns:xlink="http://www.w3.org/1999/xlink">
    <!-- Generator: Sketch 52.4 (67378) - http://www.bohemiancoding.com/sketch -->
    <title>eye</title>
    <desc>Created with Sketch.</desc>
    <g id="eye" stroke="none" stroke-width="1" fill="none" fill-rule="evenodd">
        <path d="M12,14 C13.1045695,14 14,13.1045695 14,12 C14,10.8954305 13.1045695,10 12,10 C10.8954305,10 10,10.8954305 10,12 C10,13.1045695 10.8954305,14 12,14 Z M12,16 C9.790861,16 8,14.209139 8,12 C8,9.790861 9.790861,8 12,8 C14.209139,8 16,9.790861 16,12 C16,14.209139 14.209139,16 12,16 Z M12,6 C9.37634825,6 6.8053547,7.90776208 4.31489989,12 C6.8053547,16.0922379 9.37634825,18 12,18 C14.6236517,18 17.1946453,16.0922379 19.6851001,12 C17.1946453,7.90776208 14.6236517,6 12,6 Z M12,20 C8.31810167,20 4.98476833,17.3333333 2,12 C4.98476833,6.66666667 8.31810167,4 12,4 C15.6818983,4 19.0152317,6.66666667 22,12 C19.0152317,17.3333333 15.6818983,20 12,20 Z" fill="#000000" fill-rule="nonzero"></path>
    </g>
</svg>