<svg xmlns="http://www.w3.org/2000/svg" width="24" height="24" viewBox="0 0 24 24">
  <path d="M12,18 C16.4107493,18 20,14.4046645 20,12 C20,9.59533547 16.4107493,6 12,6 C7.5892507,6 4,9.59533547 4,12 C4,14.4046645 7.5892507,18 12,18 Z M12,20 C5.4771525,20 2,14.5 2,12 C2,9.5 5.4771525,4 12,4 C18.5228475,4 22,9.5 22,12 C22,14.5 18.5228475,20 12,20 Z M12,14 C13.1045695,14 14,13.1045695 14,12 C14,10.8954305 13.1045695,10 12,10 C10.8954305,10 10,10.8954305 10,12 C10,13.1045695 10.8954305,14 12,14 Z M12,16 C9.790861,16 8,14.209139 8,12 C8,9.790861 9.790861,8 12,8 C14.209139,8 16,9.790861 16,12 C16,14.209139 14.209139,16 12,16 Z"/>
</svg>
