<svg width="48" height="48" viewBox="0 0 48 48" fill="none" xmlns="http://www.w3.org/2000/svg">
<path d="M24 6C33.954 6 42 14.046 42 24C42 33.954 33.954 42 24 42C14.046 42 6 33.954 6 24C6 14.046 14.046 6 24 6ZM31.1691 15.7071C30.7786 15.3166 30.1454 15.3166 29.7549 15.7071L24 21.462L18.2451 15.7071C17.8546 15.3166 17.2214 15.3166 16.8309 15.7071L15.7071 16.8309C15.3166 17.2214 15.3166 17.8546 15.7071 18.2451L21.462 24L15.7071 29.7549C15.3166 30.1454 15.3166 30.7786 15.7071 31.1691L16.8309 32.2929C17.2214 32.6834 17.8546 32.6834 18.2451 32.2929L24 26.538L29.7549 32.2929C30.1454 32.6834 30.7786 32.6834 31.1691 32.2929L32.2929 31.1691C32.6834 30.7786 32.6834 30.1454 32.2929 29.7549L26.538 24L32.2929 18.2451C32.6834 17.8546 32.6834 17.2214 32.2929 16.8309L31.1691 15.7071Z" fill="#000000"/>
</svg>
