<svg width="48" height="48" viewBox="0 0 48 48" fill="none" xmlns="http://www.w3.org/2000/svg">
<path fill-rule="evenodd" clip-rule="evenodd" d="M11.2721 11.2721C4.24264 18.3015 4.24264 29.6985 11.2721 36.7279C18.3015 43.7574 29.6985 43.7574 36.7279 36.7279C43.7574 29.6985 43.7574 18.3015 36.7279 11.2721C29.6985 4.24264 18.3015 4.24264 11.2721 11.2721ZM33 22C33.5523 22 34 22.4477 34 23L34 25C34 25.5523 33.5523 26 33 26H15C14.4477 26 14 25.5523 14 25L14 23C14 22.4477 14.4477 22 15 22H33Z" fill="#000000"/>
</svg>
