<svg width="48" height="48" viewBox="0 0 48 48" fill="none" xmlns="http://www.w3.org/2000/svg">
<path d="M24 6C14.1 6 6 14.1 6 24C6 33.9 14.1 42 24 42C33.9 42 42 33.9 42 24C42 14.1 33.9 6 24 6ZM21.1071 32.2929C20.7166 32.6834 20.0834 32.6834 19.6929 32.2929L12.1071 24.7071C11.7166 24.3166 11.7166 23.6834 12.1071 23.2929L13.2319 22.1681C13.622 21.778 14.2544 21.7775 14.6451 22.1671L20.4 27.906L33.3524 14.9536C33.7439 14.5621 34.379 14.5632 34.7691 14.9561L35.8979 16.0929C36.2861 16.4838 36.2849 17.1151 35.8954 17.5046L21.1071 32.2929Z" fill="#000000"/>
</svg>
