<svg xmlns="http://www.w3.org/2000/svg" width="24" height="24" viewBox="0 0 24 24">
  <path fill-rule="evenodd" d="M18,12.1707057 C19.1651924,12.5825421 20,13.6937812 20,15 C20,16.3062188 19.1651924,17.4174579 18,17.8292943 L18,19.5 C18,19.7761424 17.7761424,20 17.5,20 L16.5,20 C16.2238576,20 16,19.7761424 16,19.5 L16,17.8292943 C14.8348076,17.4174579 14,16.3062188 14,15 C14,13.6937812 14.8348076,12.5825421 16,12.1707057 L16,4.5 L16,4.5 C16,4.22385763 16.2238576,4 16.5,4 L17.5,4 C17.7761424,4 18,4.22385763 18,4.5 L18,12.1707057 Z M13,6.17070571 C14.1651924,6.58254212 15,7.69378117 15,9 C15,10.3062188 14.1651924,11.4174579 13,11.8292943 L13,19.5 C13,19.7761424 12.7761424,20 12.5,20 L11.5,20 C11.2238576,20 11,19.7761424 11,19.5 L11,11.8292943 C9.83480763,11.4174579 9,10.3062188 9,9 C9,7.69378117 9.83480763,6.58254212 11,6.17070571 L11,4.5 L11,4.5 C11,4.22385763 11.2238576,4 11.5,4 L12.5,4 C12.7761424,4 13,4.22385763 13,4.5 L13,6.17070571 Z M5,14.8292943 C3.83480763,14.4174579 3,13.3062188 3,12 C3,10.6937812 3.83480763,9.58254212 5,9.17070571 L5,4.5 C5,4.22385763 5.22385763,4 5.5,4 L6.5,4 C6.77614237,4 7,4.22385763 7,4.5 L7,9.17070571 C8.16519237,9.58254212 9,10.6937812 9,12 C9,13.3062188 8.16519237,14.4174579 7,14.8292943 L7,19.5 C7,19.7761424 6.77614237,20 6.5,20 L5.5,20 C5.22385763,20 5,19.7761424 5,19.5 L5,14.8292943 L5,14.8292943 Z M6,13 C6.55228475,13 7,12.5522847 7,12 C7,11.4477153 6.55228475,11 6,11 C5.44771525,11 5,11.4477153 5,12 C5,12.5522847 5.44771525,13 6,13 Z M12,10 C12.5522847,10 13,9.55228475 13,9 C13,8.44771525 12.5522847,8 12,8 C11.4477153,8 11,8.44771525 11,9 C11,9.55228475 11.4477153,10 12,10 Z M17,16 C17.5522847,16 18,15.5522847 18,15 C18,14.4477153 17.5522847,14 17,14 C16.4477153,14 16,14.4477153 16,15 C16,15.5522847 16.4477153,16 17,16 Z"/>
</svg>
