<svg width="24" height="24" viewBox="0 0 48 48" fill="none" xmlns="http://www.w3.org/2000/svg">
<path d="M29 40.4399H27C26.44 40.4399 26 39.9999 26 39.4399V9.43994C26 8.87994 26.44 8.43994 27 8.43994H29C29.56 8.43994 30 8.87994 30 9.43994V39.4399C30 39.9999 29.56 40.4399 29 40.4399Z" fill="#141414"/>
<path d="M24 14.4399H17C16.44 14.4399 16 13.9999 16 13.4399V11.4399C16 10.8799 16.44 10.4399 17 10.4399H24V14.4399Z" fill="#141414"/>
<path d="M44 22.4399H37C36.44 22.4399 36 21.9999 36 21.4399V19.4399C36 18.8799 36.44 18.4399 37 18.4399H44V22.4399Z" fill="#141414"/>
<path d="M19 22.4399H5C4.44 22.4399 4 21.9999 4 21.4399V19.4399C4 18.8799 4.44 18.4399 5 18.4399H19C19.56 18.4399 20 18.8799 20 19.4399V21.4399C20 21.9999 19.56 22.4399 19 22.4399Z" fill="#141414"/>
<path d="M24 30.4399H9C8.44 30.4399 8 29.9999 8 29.4399V27.4399C8 26.8799 8.44 26.4399 9 26.4399H24V30.4399Z" fill="#141414"/>
<path d="M39 30.4399H32V26.4399H39C39.56 26.4399 40 26.8799 40 27.4399V29.4399C40 29.9999 39.56 30.4399 39 30.4399Z" fill="#141414"/>
<path d="M43 38.4399H32V34.4399H43C43.56 34.4399 44 34.8799 44 35.4399V37.4399C44 37.9999 43.56 38.4399 43 38.4399Z" fill="#141414"/>
<path d="M39 14.4399H32V10.4399H39C39.56 10.4399 40 10.8799 40 11.4399V13.4399C40 13.9999 39.56 14.4399 39 14.4399Z" fill="#141414"/>
<path d="M24 38.4399H13C12.44 38.4399 12 37.9999 12 37.4399V35.4399C12 34.8799 12.44 34.4399 13 34.4399H24V38.4399Z" fill="#141414"/>
</svg>
