<svg xmlns="http://www.w3.org/2000/svg" width="24" height="24" viewBox="0 0 24 24">
  <path d="M16.6143645,5.46408865 L16,7 L14,8 L14.5,10 L13.5,10.5 L12,9.5 L10,12 L6,12 L5.5,14 L4.55821795,14.9417821 C5.73033578,17.9044144 8.62044277,20 12,20 C16.1104574,20 19.4968636,16.8999686 19.9487725,12.9103519 L18,9.5 L18.9151117,7.97481383 C18.3360038,6.98207394 17.5492399,6.12531731 16.6143645,5.46408865 Z M12,22 C6.4771525,22 2,17.5228475 2,12 C2,6.4771525 6.4771525,2 12,2 C17.5228475,2 22,6.4771525 22,12 C22,17.5228475 17.5228475,22 12,22 Z M8,17.5 L8,15.5 L11,14 L12.5,13.5 L14,14.5 L15.5,13.5 L17,15 L16.5,18.5 L14,19 L12,18 L10,19 L8,17.5 Z"/>
</svg>
