<?xml version="1.0" encoding="UTF-8"?>
<svg width="24px" height="24px" viewBox="0 0 24 24" version="1.1" xmlns="http://www.w3.org/2000/svg" xmlns:xlink="http://www.w3.org/1999/xlink">
    <!-- Generator: Sketch 53 (72520) - https://sketchapp.com -->
    <title>heart-solid</title>
    <desc>Created with Sketch.</desc>
    <g id="heart-solid" stroke="none" stroke-width="1" fill="none" fill-rule="evenodd">
        <path d="M12.1599746,5.63257478 C13.1278238,4.59020529 14.4510209,4 15.8360628,4 C17.2211047,4 18.5443018,4.59020529 19.512151,5.63257478 C20.4669757,6.65995173 21,8.04475678 21,9.48482371 C21,10.9248906 20.4669757,12.3096957 19.5120082,13.3372264 L12.6609723,20.7122999 C12.4827071,20.9042007 12.241043,21.0001007 11.9994123,20.9999999 C11.7580352,20.9998993 11.5166912,20.9039992 11.3386131,20.7122999 L4.48757723,13.3372264 C2.5041409,11.2020765 2.50414093,7.76757095 4.48757728,5.63242103 C6.5089298,3.45645472 9.81811545,3.45645469 11.839468,5.63242098 L11.9997927,5.80500898 L12.1599746,5.63257478 Z" id="heart" fill="#000000" fill-rule="nonzero"></path>
    </g>
</svg>