<svg xmlns="http://www.w3.org/2000/svg" width="24" height="24" viewBox="0 0 24 24">
  <path d="M12.1777495,4.8246424 C13.2531376,3.65964121 14.7233566,3 16.262292,3 C17.8012274,3 19.2714464,3.65964121 20.3468345,4.8246424 C21.4077508,5.97288723 22,7.52061052 22,9.13009709 C22,10.7395837 21.4077508,12.2873069 20.3466758,13.4357237 L12.7344137,21.6784528 C12.5363412,21.8929302 12.2678256,22.0001125 11.999347,21.9999999 C11.7311502,21.9998874 11.4629903,21.892705 11.2651257,21.6784528 L3.65286359,13.4357237 C1.44904545,11.0493796 1.44904547,7.21081459 3.65286365,4.82447056 C5.89881089,2.39250821 9.57568383,2.39250818 11.8216311,4.8244705 L11.9997697,5.01736297 L12.1777495,4.8246424 Z M17.9646052,13.0671996 L18.8775465,12.0786462 C19.5936701,11.3035754 20,10.2417145 20,9.13009709 C20,8.0184797 19.5936701,6.95661877 18.8775465,6.18154797 C18.1760939,5.42164277 17.2363297,5 16.262292,5 C15.2882543,5 14.3484901,5.42164277 13.6471962,6.1813761 L12.7344137,7.16975765 C12.3384766,7.59848725 11.6610628,7.59848725 11.2651257,7.16975765 L10.3523431,6.18137611 C8.89827003,4.60687299 6.57622473,4.606873 5.12215164,6.18137615 C3.62594947,7.80149761 3.62594945,10.4586966 5.12215159,12.0788181 L11.9997697,19.5260581 L17.9646052,13.0671996 Z"/>
</svg>
