<?xml version="1.0" encoding="UTF-8"?>
<svg width="24px" height="24px" viewBox="0 0 24 24" version="1.1" xmlns="http://www.w3.org/2000/svg" xmlns:xlink="http://www.w3.org/1999/xlink">
    <!-- Generator: Sketch 53 (72520) - https://sketchapp.com -->
    <title>home</title>
    <desc>Created with Sketch.</desc>
    <g id="home" stroke="none" stroke-width="1" fill="none" fill-rule="evenodd">
        <path d="M19.4324793,13.7189876 L19.4324793,20.7189876 C19.4324793,21.2712723 18.984764,21.7189876 18.4324793,21.7189876 L6.43247921,21.7189876 C5.88019446,21.7189876 5.4324792,21.2712723 5.4324792,20.7189876 L5.4324792,13.7189876 L3.5,13.7189876 C3.22385762,13.7189876 3,13.49513 3,13.2189876 C3,13.1020193 3.04100811,12.9887529 3.11588936,12.8988954 L12.0483686,2.17992034 C12.2251506,1.96778189 12.540433,1.93911986 12.7525714,2.1159019 C12.7758029,2.13526151 12.7972302,2.15668881 12.8165898,2.17992034 L21.7490691,12.8988954 C21.9258512,13.1110338 21.8971891,13.4263162 21.6850507,13.6030982 C21.5951932,13.6779795 21.4819267,13.7189876 21.3649585,13.7189876 L19.4324793,13.7189876 Z M13.4324792,19.7189876 L17.4324792,19.7189876 L17.4324792,11.7189876 L18.1623961,11.7189876 L12.4324792,4.84308745 L6.70256244,11.7189876 L7.43247921,11.7189876 L7.43247921,19.7189876 L11.4324792,19.7189876 L11.4324792,17.7189876 C11.4324792,17.1667029 11.8801945,16.7189876 12.4324792,16.7189876 C12.9847639,16.7189876 13.4324792,17.1667029 13.4324792,17.7189876 L13.4324792,19.7189876 Z" fill="#000000"></path>
    </g>
</svg>