<?xml version="1.0" encoding="UTF-8"?>
<svg width="24px" height="24px" viewBox="0 0 24 24" version="1.1" xmlns="http://www.w3.org/2000/svg" xmlns:xlink="http://www.w3.org/1999/xlink">
    <!-- Generator: Sketch 52.4 (67378) - http://www.bohemiancoding.com/sketch -->
    <title>idea</title>
    <desc>Created with Sketch.</desc>
    <g id="idea" stroke="none" stroke-width="1" fill="none" fill-rule="evenodd">
        <path d="M5,9 C5,5.13400675 8.13400675,2 12,2 C15.8659932,2 19,5.13400675 19,9 C19,11.5187659 17.6696884,13.726821 15.6733539,14.9598764 L15.1392668,18.164399 C15.0589022,18.646587 14.6417121,19 14.1528729,19 L9.84712709,19 C9.35828794,19 8.94109783,18.646587 8.86073316,18.164399 L8.32664607,14.9598764 C6.33031157,13.726821 5,11.5187659 5,9 Z M13.3057458,17 L13.8498391,13.7354406 L14.6223525,13.2582901 C16.0898563,12.3518721 17,10.7555528 17,9 C17,6.23857625 14.7614237,4 12,4 C9.23857625,4 7,6.23857625 7,9 C7,10.7555528 7.91014368,12.3518721 9.37764746,13.2582901 L10.1501609,13.7354406 L10.6942542,17 L13.3057458,17 Z M9.5,20 L14.5,20 C14.7761424,20 15,20.2238576 15,20.5 L15,21.5 C15,21.7761424 14.7761424,22 14.5,22 L9.5,22 C9.22385763,22 9,21.7761424 9,21.5 L9,20.5 C9,20.2238576 9.22385763,20 9.5,20 Z" id="Combined-Shape" fill="#000000" fill-rule="nonzero"></path>
    </g>
</svg>