<svg xmlns="http://www.w3.org/2000/svg" width="24" height="24" viewBox="0 0 24 24">
  <path d="M5,3 L19,3 C19.5522847,3 20,3.44771525 20,4 L20,20.5 C20,20.7761424 19.7761424,21 19.5,21 L12.1513878,21 C12.0526753,21 11.9561715,20.970781 11.8740377,20.9160251 L9,19 L4.68569534,20.7257219 C4.42930358,20.8282786 4.13831836,20.7035706 4.03576165,20.4471789 C4.0121376,20.3881187 4,20.3250932 4,20.2614835 L4,4 C4,3.44771525 4.44771525,3 5,3 Z M6,18.0459341 L9.23403274,16.752321 L12.6055513,19 L18,19 L18,5 L6,5 L6,18.0459341 Z M7,8 L9,8 L9,10 L7,10 L7,8 Z M10,8 L17,8 L17,10 L10,10 L10,8 Z M7,11 L9,11 L9,13 L7,13 L7,11 Z M10,11 L17,11 L17,13 L10,13 L10,11 Z"/>
</svg>
