<?xml version="1.0" encoding="UTF-8"?>
<svg width="24px" height="24px" viewBox="0 0 24 24" version="1.1" xmlns="http://www.w3.org/2000/svg" xmlns:xlink="http://www.w3.org/1999/xlink">
    <!-- Generator: Sketch 52.4 (67378) - http://www.bohemiancoding.com/sketch -->
    <title>kanban</title>
    <desc>Created with Sketch.</desc>
    <g id="kanban" stroke="none" stroke-width="1" fill="none" fill-rule="evenodd">
        <path d="M4,6 L4,12 L6,12 L6,6 L4,6 Z M3,4 L7,4 C7.55228475,4 8,4.44771525 8,5 L8,13 C8,13.5522847 7.55228475,14 7,14 L3,14 C2.44771525,14 2,13.5522847 2,13 L2,5 C2,4.44771525 2.44771525,4 3,4 Z M11,6 L11,18 L13,18 L13,6 L11,6 Z M10,4 L14,4 C14.5522847,4 15,4.44771525 15,5 L15,19 C15,19.5522847 14.5522847,20 14,20 L10,20 C9.44771525,20 9,19.5522847 9,19 L9,5 C9,4.44771525 9.44771525,4 10,4 Z M18,6 L18,14 L20,14 L20,6 L18,6 Z M17,4 L21,4 C21.5522847,4 22,4.44771525 22,5 L22,15 C22,15.5522847 21.5522847,16 21,16 L17,16 C16.4477153,16 16,15.5522847 16,15 L16,5 C16,4.44771525 16.4477153,4 17,4 Z" id="Combined-Shape" fill="#000000" fill-rule="nonzero"></path>
    </g>
</svg>