<?xml version="1.0" encoding="UTF-8"?>
<svg width="24px" height="24px" viewBox="0 0 24 24" version="1.1" xmlns="http://www.w3.org/2000/svg" xmlns:xlink="http://www.w3.org/1999/xlink">
    <!-- Generator: Sketch 52.4 (67378) - http://www.bohemiancoding.com/sketch -->
    <title>landline</title>
    <desc>Created with Sketch.</desc>
    <g id="landline" stroke="none" stroke-width="1" fill="none" fill-rule="evenodd">
        <path d="M16.6586796,13.2736409 L20.4125994,16.0254693 C20.4834633,16.0774165 20.550827,16.133977 20.6142526,16.1947832 C21.4115919,16.959194 21.4382857,18.2252426 20.6738749,19.0225818 L17.9503171,21.8634621 L17.4624372,21.8116741 C13.8023455,21.4231591 10.4501165,19.5720424 7.42670533,16.3014999 C4.43288512,13.0629671 2.67004886,9.80241027 2.16844553,6.518167 L2.08544565,5.97472606 L5.0962217,3.34966992 C5.1502789,3.30253816 5.20683214,3.2583482 5.26563635,3.21729155 C6.17130333,2.58496165 7.41809614,2.80654514 8.05042604,3.71221212 L10.6312546,7.40865474 L9.53670043,9.95483452 C10.0950815,11.0911484 10.6909727,11.9582811 11.3144936,12.5578986 C11.9614822,13.1800843 12.832852,13.8283013 13.9272094,14.4972508 L16.6586796,13.2736409 Z M8.89531615,14.9438614 C11.4685542,17.7274339 14.2289726,19.3211308 17.1944861,19.7618628 L19.2301644,17.6384937 L16.4145626,15.5745036 L13.8001348,16.7456824 L13.3559583,16.4857979 C11.9269451,15.6496926 10.7850236,14.8234679 9.92818218,13.9994744 C9.03433314,13.139892 8.23970533,11.9367915 7.53066261,10.3924724 L7.3452247,9.98858234 L8.35434113,7.64114995 L6.41057091,4.85714668 L4.24010113,6.7495508 C4.78159785,9.43157859 6.32502109,12.1634724 8.89531615,14.9438614 Z" id="Path-2" fill="#000000" fill-rule="nonzero"></path>
    </g>
</svg>