<svg xmlns="http://www.w3.org/2000/svg" width="24" height="24" viewBox="0 0 24 24">
  <path d="M21.2854226,15.4287465 L12.5144958,20.6913025 C12.1978134,20.881312 11.8021866,20.881312 11.4855042,20.6913025 L2.71457744,15.4287465 L2.71457744,15.4287465 C2.47778731,15.2866724 2.40100477,14.9795423 2.54307885,14.7427521 C2.58530373,14.6723773 2.64420264,14.6134784 2.71457744,14.5712535 L6.30396793,12.4176192 L8.24761856,13.5838096 L5.88730126,15 L12,18.6676192 L18.1126987,15 L15.7523814,13.5838096 L17.6960321,12.4176192 L21.2854226,14.5712535 C21.5222127,14.7133276 21.5989952,15.0204577 21.4569211,15.2572479 C21.4146963,15.3276227 21.3557974,15.3865216 21.2854226,15.4287465 Z M12.5144958,3.30869745 L21.2854226,8.57125354 C21.5222127,8.71332762 21.5989952,9.02045774 21.4569211,9.25724788 C21.4146963,9.32762268 21.3557974,9.38652158 21.2854226,9.42874646 L12.5144958,14.6913025 L12.5144958,14.6913025 C12.1978134,14.881312 11.8021866,14.881312 11.4855042,14.6913025 L2.71457744,9.42874646 L2.71457744,9.42874646 C2.47778731,9.28667238 2.40100477,8.97954226 2.54307885,8.74275212 C2.58530373,8.67237732 2.64420264,8.61347842 2.71457744,8.57125354 L11.4855042,3.30869745 L11.4855042,3.30869745 C11.8021866,3.11868802 12.1978134,3.11868802 12.5144958,3.30869745 L12.5144958,3.30869745 Z M18.1126987,9 L12,5.33238076 L5.88730126,9 L12,12.6676192 L18.1126987,9 Z"/>
</svg>
