<svg width="48" height="48" viewBox="0 0 48 48" fill="none" xmlns="http://www.w3.org/2000/svg">
<path d="M24 8L18.3071 13.6929C17.9166 14.0834 17.9166 14.7166 18.3071 15.1071L20.0929 16.8929C20.4834 17.2834 21.1166 17.2834 21.5071 16.8929L27.2 11.2C29.84 8.56 34.16 8.56 36.8 11.2C39.44 13.84 39.44 18.16 36.8 20.8L31.1071 26.4929C30.7166 26.8834 30.7166 27.5166 31.1071 27.9071L32.8929 29.6929C33.2834 30.0834 33.9166 30.0834 34.3071 29.6929L40 24C44.416 19.584 44.416 12.416 40 8C35.584 3.584 28.416 3.584 24 8ZM27.9071 31.1071C27.5166 30.7166 26.8834 30.7166 26.4929 31.1071L20.8 36.8C18.16 39.44 13.84 39.44 11.2 36.8C8.56 34.16 8.56 29.84 11.2 27.2L16.8929 21.5071C17.2834 21.1166 17.2834 20.4834 16.8929 20.0929L15.1071 18.3071C14.7166 17.9166 14.0834 17.9166 13.6929 18.3071L8 24C3.584 28.416 3.584 35.584 8 40C12.416 44.416 19.584 44.416 24 40L29.6929 34.3071C30.0834 33.9166 30.0834 33.2834 29.6929 32.8929L27.9071 31.1071ZM16.7071 29.5071C16.3166 29.1166 16.3166 28.4834 16.7071 28.0929L28.0929 16.7071C28.4834 16.3166 29.1166 16.3166 29.5071 16.7071L31.2929 18.4929C31.6834 18.8834 31.6834 19.5166 31.2929 19.9071L19.9071 31.2929C19.5166 31.6834 18.8834 31.6834 18.4929 31.2929L16.7071 29.5071Z" fill="#393939"/>
</svg>
