<svg xmlns="http://www.w3.org/2000/svg" width="24" height="24" viewBox="0 0 24 24">
  <path fill-rule="evenodd" d="M4.5,6 L6.5,6 C6.77614237,6 7,6.22385763 7,6.5 L7,7.5 C7,7.77614237 6.77614237,8 6.5,8 L4.5,8 L4.5,8 C4.22385763,8 4,7.77614237 4,7.5 L4,6.5 L4,6.5 C4,6.22385763 4.22385763,6 4.5,6 L4.5,6 Z M9.5,6 L19.5,6 C19.7761424,6 20,6.22385763 20,6.5 L20,7.5 C20,7.77614237 19.7761424,8 19.5,8 L9.5,8 C9.22385763,8 9,7.77614237 9,7.5 L9,6.5 L9,6.5 C9,6.22385763 9.22385763,6 9.5,6 Z M4.5,11 L6.5,11 C6.77614237,11 7,11.2238576 7,11.5 L7,12.5 C7,12.7761424 6.77614237,13 6.5,13 L4.5,13 C4.22385763,13 4,12.7761424 4,12.5 L4,11.5 C4,11.2238576 4.22385763,11 4.5,11 L4.5,11 Z M9.5,11 L19.5,11 C19.7761424,11 20,11.2238576 20,11.5 L20,12.5 C20,12.7761424 19.7761424,13 19.5,13 L9.5,13 C9.22385763,13 9,12.7761424 9,12.5 L9,11.5 C9,11.2238576 9.22385763,11 9.5,11 Z M4.5,16 L6.5,16 C6.77614237,16 7,16.2238576 7,16.5 L7,17.5 C7,17.7761424 6.77614237,18 6.5,18 L4.5,18 C4.22385763,18 4,17.7761424 4,17.5 L4,16.5 C4,16.2238576 4.22385763,16 4.5,16 L4.5,16 Z M9.5,16 L19.5,16 C19.7761424,16 20,16.2238576 20,16.5 L20,17.5 C20,17.7761424 19.7761424,18 19.5,18 L9.5,18 C9.22385763,18 9,17.7761424 9,17.5 L9,16.5 C9,16.2238576 9.22385763,16 9.5,16 Z"/>
</svg>
