<svg xmlns="http://www.w3.org/2000/svg" width="24" height="24" viewBox="0 0 24 24">
  <path d="M3.5,16.0317383 L4.5,16.0317383 C4.77614237,16.0317383 5,16.2555959 5,16.5317383 L5,19 L19,19 L19,5 L5,5 L5,7.5 C5,7.77614237 4.77614237,8 4.5,8 L3.5,8 C3.22385763,8 3,7.77614237 3,7.5 L3,4 C3,3.44771525 3.44771525,3 4,3 L20,3 C20.5522847,3 21,3.44771525 21,4 L21,20 C21,20.5522847 20.5522847,21 20,21 L4,21 C3.44771525,21 3,20.5522847 3,20 L3,16.5317383 C3,16.2555959 3.22385763,16.0317383 3.5,16.0317383 Z M12.020752,11 L12.020752,8.97570801 L16,12 L12,15 L12.020752,13 L3.5,13 C3.22385763,13 3,12.7761424 3,12.5 L3,11.5 C3,11.2238576 3.22385763,11 3.5,11 L12.020752,11 Z"/>
</svg>
