<svg width="24" height="24" viewBox="0 0 24 24" xmlns="http://www.w3.org/2000/svg">
<path fill-rule="evenodd" clip-rule="evenodd" d="M14.8073 13.5374C16.3786 11.4403 16.2011 8.46905 14.2749 6.56937C12.1531 4.47688 8.71307 4.47688 6.59131 6.56937C4.46956 8.66187 4.46956 12.0545 6.59131 14.147C8.44899 15.979 11.3172 16.2071 13.4265 14.831L17.5062 18.8545C17.7029 19.0485 18.0219 19.0485 18.2186 18.8545L18.8524 18.2294C19.0492 18.0354 19.0492 17.7208 18.8524 17.5268L14.8073 13.5374ZM12.8499 7.97464C14.1847 9.29103 14.1847 11.4253 12.8499 12.7417C11.5151 14.0581 9.35102 14.0581 8.01623 12.7417C6.68144 11.4253 6.68144 9.29103 8.01623 7.97464C9.35102 6.65826 11.5151 6.65826 12.8499 7.97464Z"/>
</svg>
