<svg xmlns="http://www.w3.org/2000/svg" width="24" height="24" viewBox="0 0 24 24">
  <path d="M13.8,11 L15,11 L15.8039501,19.0395008 C18.3028556,17.6863121 20,15.0413507 20,12 C20,7.581722 16.418278,4 12,4 C7.581722,4 4,7.581722 4,12 C4,15.0413507 5.69714441,17.6863121 8.19604992,19.0395008 L9,11 L10.2,11 L11,7 L13,7 L13.8,11 Z M12,22 C6.4771525,22 2,17.5228475 2,12 C2,6.4771525 6.4771525,2 12,2 C17.5228475,2 22,6.4771525 22,12 C22,17.5228475 17.5228475,22 12,22 Z M10.8099751,13 L10.1621632,19.4781195 C10.7819911,19.7847226 11.3970348,19.9381651 12.0072942,19.9384469 C12.6175536,19.9387288 13.227791,19.7858522 13.8380066,19.4798171 L13.1900249,13 L10.8099751,13 Z"/>
</svg>
