<svg xmlns="http://www.w3.org/2000/svg" xmlns:xlink="http://www.w3.org/1999/xlink" width="24" height="24" viewBox="0 0 24 24">
  <defs>
    <path id="material-a" d="M4,3 L20,3 C20.5523,3 21,3.4477 21,4 L21,20 C21,20.5523 20.5523,21 20,21 L4,21 C3.4477,21 3,20.5523 3,20 L3,4 C3,3.4477 3.4477,3 4,3 Z M5,5 L5,19 L9,19 L19,9 L19,5 L5,5 Z M19.013,16.6588 L16.651,19.0137 L19.013,19.0137 L19.013,16.6587 L19.013,16.6588 Z M11.7304,19.0088 L13.8324,19.0088 L19.0112,13.84 L19.0112,11.7253 L11.7304,19.0087 L11.7304,19.0088 Z M8,9 C7.4477,9 7,8.5523 7,8 C7,7.4477 7.4477,7 8,7 C8.5523,7 9,7.4477 9,8 C9,8.5523 8.5523,9 8,9 Z M12,9 C11.4477,9 11,8.5523 11,8 C11,7.4477 11.4477,7 12,7 C12.5523,7 13,7.4477 13,8 C13,8.5523 12.5523,9 12,9 Z M16,9 C15.4477,9 15,8.5523 15,8 C15,7.4477 15.4477,7 16,7 C16.5523,7 17,7.4477 17,8 C17,8.5523 16.5523,9 16,9 Z M8,13 C7.4477,13 7,12.5523 7,12 C7,11.4477 7.4477,11 8,11 C8.5523,11 9,11.4477 9,12 C9,12.5523 8.5523,13 8,13 Z M12,13 C11.4477,13 11,12.5523 11,12 C11,11.4477 11.4477,11 12,11 C12.5523,11 13,11.4477 13,12 C13,12.5523 12.5523,13 12,13 Z M8,17 C7.4477,17 7,16.5523 7,16 C7,15.4477 7.4477,15 8,15 C8.5523,15 9,15.4477 9,16 C9,16.5523 8.5523,17 8,17 Z"/>
  </defs>
  <g fill="none" fill-rule="evenodd">
    <use fill="#000" fill-rule="nonzero" xlink:href="#material-a"/>
  </g>
</svg>
