<svg xmlns="http://www.w3.org/2000/svg" width="24" height="24" viewBox="0 0 24 24">
  <path d="M7.80782891,17.6063847 C8.97640944,18.4815965 10.4276649,19 12,19 C15.8659932,19 19,15.8659932 19,12 C19,10.4276649 18.4815965,8.97640944 17.6063847,7.80782891 L7.80782891,17.6063847 Z M6.39361534,16.1921711 L16.1921711,6.39361534 C15.0235906,5.51840355 13.5723351,5 12,5 C8.13400675,5 5,8.13400675 5,12 C5,13.5723351 5.51840355,15.0235906 6.39361534,16.1921711 Z M12,21 C7.02943725,21 3,16.9705627 3,12 C3,7.02943725 7.02943725,3 12,3 C16.9705627,3 21,7.02943725 21,12 C21,16.9705627 16.9705627,21 12,21 Z"/>
</svg>
