<svg width="24px" height="24px" viewBox="0 0 24 24" version="1.1" xmlns="http://www.w3.org/2000/svg" xmlns:xlink="http://www.w3.org/1999/xlink">
        <path d="M18,20 L18,18 L20,18 L20,21 C20.0000001,21.5522848 19.5522848,22.0000001 19,22 L5,22 C4.44771525,22.0000001 4,21.5522848 4,21 L4,3 C4,2.44771525 4.44771525,2 5,2 L19,2 C19.5522848,2 20.0000001,2.44771525 20,3 L20,10 L18,10 L18,4 L6,4 L6,20 L18,20 Z M8.00000002,7.00000002 L16,7.00000002 L16,9.00000002 L8.00000002,9.00000002 L8.00000002,7.00000002 Z M8.00000002,11 L14,11 L14,13 L8.00000002,13 L8.00000002,11 Z M8.00000002,15.0000001 L14,15.0000001 L14,17.0000001 L8.00000002,17.0000001 L8.00000002,15.0000001 Z"></path>
        <polygon id="Icon-/-check" points="16.1314134 12.9066839 17.9895822 14.7338568 21.7320217 11.0000001 22.958446 12.1243143 17.9895822 17.0000001 14.958446 14.0463778"></polygon>
</svg>