<?xml version="1.0" encoding="UTF-8"?>
<svg width="24px" height="24px" viewBox="0 0 24 24" version="1.1" xmlns="http://www.w3.org/2000/svg" xmlns:xlink="http://www.w3.org/1999/xlink">
    <!-- Generator: Sketch 52.4 (67378) - http://www.bohemiancoding.com/sketch -->
    <title>outlink</title>
    <desc>Created with Sketch.</desc>
    <g id="outlink" stroke="none" stroke-width="1" fill="none" fill-rule="evenodd">
        <path d="M12,3 L12,5 L5,5 L5,19 L19,19 L19,12 L21,12 L21,20 C21,20.5522847 20.5522847,21 20,21 L4,21 C3.44771525,21 3,20.5522847 3,20 L3,4 C3,3.44771525 3.44771525,3 4,3 L12,3 Z M19,6.41421356 L10.1425316,15.271682 L8.72831802,13.8574684 L17.5857864,5 L15,5 L15,3 L20,3 C20.5522847,3 21,3.44771525 21,4 L21,8.5 L19,8.5 L19,6.41421356 Z" id="Combined-Shape" fill="#000000" fill-rule="nonzero"></path>
    </g>
</svg>