<?xml version="1.0" encoding="UTF-8"?>
<svg width="24px" height="24px" viewBox="0 0 24 24" version="1.1" xmlns="http://www.w3.org/2000/svg" xmlns:xlink="http://www.w3.org/1999/xlink">
    <!-- Generator: Sketch 52.4 (67378) - http://www.bohemiancoding.com/sketch -->
    <title>pdf</title>
    <desc>Created with Sketch.</desc>
    <g id="pdf" stroke="none" stroke-width="1" fill="none" fill-rule="evenodd">
        <path d="M21,10 L19.0252887,10 L19.0252887,7.06243896 L16,7 L16.0358887,4.00024414 L4.99536133,4.00024414 L4.99536133,20.0291748 L19.0252887,20.0291748 L19.0252887,18 L21,18 L21,21 C21,21.7889782 20.5522847,22 20,22 L4,22 C3.44771525,22 3,21.7889782 3,21 L3,3 C3,2.21102179 3.44771525,2 4,2 L16.9891968,2 L21,6.17947824 L21,10 Z M7,11 L9.34111111,11 C10.4961111,11 11.2855556,11.8274428 11.2855556,13.0748441 C11.2855556,14.3097713 10.465,15.1372141 9.28277778,15.1372141 L8.17444444,15.1372141 L8.17444444,17 L7,17 L7,11 Z M8.17444444,12.031185 L8.17444444,14.1185031 L9.02611111,14.1185031 C9.69888889,14.1185031 10.0916667,13.7525988 10.0916667,13.0790021 C10.0916667,12.3970894 9.70666667,12.031185 9.03,12.031185 L8.17444444,12.031185 Z M11.8688889,11 L14.0777778,11 C15.7461111,11 16.7105556,12.0769231 16.7105556,13.956341 C16.7105556,15.9064449 15.7577778,17 14.0777778,17 L11.8688889,17 L11.8688889,11 Z M13.0433333,12.0727651 L13.0433333,15.9272349 L13.8911111,15.9272349 C14.9294444,15.9272349 15.5127778,15.2453222 15.5127778,13.977131 C15.5127778,12.7629938 14.91,12.0727651 13.8911111,12.0727651 L13.0433333,12.0727651 Z M18.4994444,17 L17.325,17 L17.325,11 L21,11 L21,12.0727651 L18.4994444,12.0727651 L18.4994444,13.6361746 L20.7822222,13.6361746 L20.7822222,14.6632017 L18.4994444,14.6632017 L18.4994444,17 Z" id="Combined-Shape" fill="#000000" fill-rule="nonzero"></path>
    </g>
</svg>