<svg xmlns="http://www.w3.org/2000/svg" width="24" height="24" viewBox="0 0 24 24">
  <path d="M5,8 L19,8 C19.5522847,8 20,8.44771525 20,9 L20,21 C20,21.5522847 19.5522847,22 19,22 L5,22 C4.44771525,22 4,21.5522847 4,21 L4,9 C4,8.44771525 4.44771525,8 5,8 Z M6,10 L6,20 L18,20 L18,10 L6,10 Z M11,15.7324356 C10.4021986,15.3866262 10,14.7402824 10,14 C10,12.8954305 10.8954305,12 12,12 C13.1045695,12 14,12.8954305 14,14 C14,14.7402824 13.5978014,15.3866262 13,15.7324356 L13,18 L11,18 L11,15.7324356 Z M10,8 L14,8 L14,5.35160511 C13.604137,4.366252 13.0308005,4 12,4 C10.9691995,4 10.395863,4.366252 10,5.35160511 L10,8 Z M8,5 C8.66666667,3 10,2 12,2 C14,2 15.3333333,3 16,5 L16,10 L8,10 L8,5 Z"/>
</svg>
