<svg xmlns="http://www.w3.org/2000/svg" width="24" height="24" viewBox="0 0 24 24">
  <path d="M19,16.7692308 L19,6 L5,6 L5,18 L7.02666667,18 L9.3,13.5714286 L11.5,16.1428571 L14,11 L19,16.7692308 Z M4,4 L20,4 C20.5522847,4 21,4.44771525 21,5 L21,19 C21,19.5522847 20.5522847,20 20,20 L4,20 C3.44771525,20 3,19.5522847 3,19 L3,5 C3,4.44771525 3.44771525,4 4,4 Z M9,12 C7.8954305,12 7,11.1045695 7,10 C7,8.8954305 7.8954305,8 9,8 C10.1045695,8 11,8.8954305 11,10 C11,11.1045695 10.1045695,12 9,12 Z"/>
</svg>
