<svg xmlns="http://www.w3.org/2000/svg" width="24" height="24" viewBox="0 0 24 24">
  <path fill-rule="evenodd" d="M11,11 L5.5,11 C5.22385763,11 5,11.2238576 5,11.5 L5,12.5 C5,12.7761424 5.22385763,13 5.5,13 L11,13 L11,18.5 C11,18.7761424 11.2238576,19 11.5,19 L12.5,19 C12.7761424,19 13,18.7761424 13,18.5 L13,13 L18.5,13 C18.7761424,13 19,12.7761424 19,12.5 L19,11.5 C19,11.2238576 18.7761424,11 18.5,11 L13,11 L13,5.5 C13,5.22385763 12.7761424,5 12.5,5 L11.5,5 C11.2238576,5 11,5.22385763 11,5.5 L11,11 Z"/>
</svg>
