<?xml version="1.0" encoding="UTF-8"?>
<svg width="24px" height="24px" viewBox="0 0 24 24" version="1.1" xmlns="http://www.w3.org/2000/svg" xmlns:xlink="http://www.w3.org/1999/xlink">
    <!-- Generator: Sketch 53 (72520) - https://sketchapp.com -->
    <title>printer</title>
    <desc>Created with Sketch.</desc>
    <g id="printer" stroke="none" stroke-width="1" fill="none" fill-rule="evenodd">
        <path d="M5,2 L19,2 C19.5522847,2 20,2.44771525 20,3 L20,13 L20,21 C20,21.5522847 19.5522847,22 19,22 L5,22 C4.44771525,22 4,21.5522847 4,21 L4,13 L4,3 C4,2.44771525 4.44771525,2 5,2 Z M10,13 L14,13 L14,11 L10,11 L10,13 Z M6,15 L6,20 L18,20 L18,15 L6,15 Z M6,4 L6,13 L8,13 L8,10 C8,9.44771525 8.44771525,9 9,9 L15,9 C15.5522847,9 16,9.44771525 16,10 L16,13 L18,13 L18,4 L15,4 L15,5 L14,5 L13,7 L11,7 L10,5 L9,5 L9,4 L6,4 Z" id="Combined-Shape" fill="#000000" fill-rule="nonzero"></path>
    </g>
</svg>