<svg xmlns="http://www.w3.org/2000/svg" width="24" height="24" viewBox="0 0 24 24">
  <path fill-rule="evenodd" d="M6,17 L3,17 C2.44771525,17 2,16.5522847 2,16 L2,10 C2,8.8954305 2.8954305,8 4,8 L6,8 L6,4 C6,3.44771525 6.44771525,3 7,3 L17,3 C17.5522847,3 18,3.44771525 18,4 L18,8 L20,8 C21.1045695,8 22,8.8954305 22,10 L22,16 C22,16.5522847 21.5522847,17 21,17 L18,17 L18,19 C18,20.1045695 17.1045695,21 16,21 L8,21 C6.8954305,21 6,20.1045695 6,19 L6,17 L6,17 Z M8,8 L16,8 L16,5 L8,5 L8,8 Z M20,15 L20,10 L4,10 L4,15 L6,15 L6,13 L18,13 L18,15 L20,15 Z M8,15 L8,19 L16,19 L16,15 L8,15 Z"/>
</svg>
