<?xml version="1.0" encoding="UTF-8"?>
<svg width="24px" height="24px" viewBox="0 0 24 24" version="1.1" xmlns="http://www.w3.org/2000/svg" xmlns:xlink="http://www.w3.org/1999/xlink">
    <!-- Generator: Sketch 52.4 (67378) - http://www.bohemiancoding.com/sketch -->
    <title>qr-code</title>
    <desc>Created with Sketch.</desc>
    <g id="qr-code" stroke="none" stroke-width="1" fill="none" fill-rule="evenodd">
        <path d="M15,5 L15,9 L19,9 L19,5 L15,5 Z M14,3 L20,3 C20.5522847,3 21,3.44771525 21,4 L21,10 C21,10.5522847 20.5522847,11 20,11 L14,11 C13.4477153,11 13,10.5522847 13,10 L13,4 C13,3.44771525 13.4477153,3 14,3 Z M5,15 L5,19 L9,19 L9,15 L5,15 Z M4,13 L10,13 C10.5522847,13 11,13.4477153 11,14 L11,20 C11,20.5522847 10.5522847,21 10,21 L4,21 C3.44771525,21 3,20.5522847 3,20 L3,14 C3,13.4477153 3.44771525,13 4,13 Z M14,13 L20,13 C20.5522847,13 21,13.4477153 21,14 L21,20 C21,20.5522847 20.5522847,21 20,21 L14,21 C13.4477153,21 13,20.5522847 13,20 L13,14 C13,13.4477153 13.4477153,13 14,13 Z M15,15.0021973 L15,17 L17,17 L17,19.0191956 L19,19.0191956 L19,15.0021973 L15,15.0021973 Z M6,6 L8,6 L8,8 L6,8 L6,6 Z M6,16 L8,16 L8,18 L6,18 L6,16 Z M16,6 L18,6 L18,8 L16,8 L16,6 Z M5,5 L5,9 L9,9 L9,5 L5,5 Z M4,3 L10,3 C10.5522847,3 11,3.44771525 11,4 L11,10 C11,10.5522847 10.5522847,11 10,11 L4,11 C3.44771525,11 3,10.5522847 3,10 L3,4 C3,3.44771525 3.44771525,3 4,3 Z" fill="#000000" fill-rule="nonzero"></path>
    </g>
</svg>