<svg width="24" height="24" viewBox="0 0 48 48" fill="none" xmlns="http://www.w3.org/2000/svg">
<path fill-rule="evenodd" clip-rule="evenodd" d="M8 7.56003C8 6.45546 8.89543 5.56003 10 5.56003H38C39.1046 5.56003 40 6.45546 40 7.56003V41.56C40 42.6646 39.1046 43.56 38 43.56H10C8.89543 43.56 8 42.6646 8 41.56V7.56003ZM12 9.56003V39.56H36V9.56003H12Z" fill="#010101"/>
<path d="M24.84 26.86V28.38H23V26.86C21.5066 26.7718 20.0913 26.1632 19 25.14L20.56 22.98C21.5036 23.9256 22.7841 24.458 24.12 24.46C25.1 24.46 25.7 24.04 25.7 23.5C25.7 22.96 24.98 22.62 23.8 22.38C21.96 22 19.4 21.54 19.4 18.9C19.4515 17.968 19.861 17.092 20.5429 16.4547C21.2249 15.8175 22.1267 15.4683 23.06 15.48V14H24.9V15.58C26.1741 15.7351 27.3759 16.2561 28.36 17.08L26.78 19.08C25.8948 18.3652 24.7975 17.9642 23.66 17.94C22.7 17.94 22.34 18.32 22.34 18.8C22.34 19.28 23.02 19.58 24.34 19.82C26.16 20.2 28.7 20.74 28.7 23.24C28.6925 23.7337 28.5858 24.2209 28.3861 24.6725C28.1865 25.1241 27.898 25.5309 27.5378 25.8687C27.1776 26.2065 26.7531 26.4683 26.2897 26.6386C25.8262 26.8089 25.3332 26.8842 24.84 26.86Z" fill="#010101"/>
<path fill-rule="evenodd" clip-rule="evenodd" d="M32 35.56H16V31.56H32V35.56Z" fill="#010101"/>
</svg>
