<svg width="48" height="48" viewBox="0 0 48 48" fill="none" xmlns="http://www.w3.org/2000/svg">
<path d="M18 21V43H8C6.96876 43 6.07675 42.6557 5.32324 41.9678L5.17383 41.8262C4.39116 41.0422 4 40.1 4 39V21H18ZM31 21V43H18V21H31ZM45 21V39C45 40.1 44.6088 41.0422 43.8262 41.8262L43.6768 41.9678C42.9232 42.6557 42.0312 43 41 43H31V21H45ZM33 39H40.9951C40.9967 38.9985 40.9983 38.9968 41 38.9951V25H33V39ZM20 39H29V25H20V39ZM8 38.9951C8.00168 38.9968 8.00331 38.9985 8.00488 39H16V25H8V38.9951ZM41 5C42.1 5 43.0422 5.39116 43.8262 6.17383C44.6088 6.95783 45 7.9 45 9V17H4V9C4 7.9 4.39116 6.95783 5.17383 6.17383C5.95783 5.39116 6.9 5 8 5H41ZM8 9.00488V13H41V9.00488L40.9951 9H8.00488C8.00331 9.00154 8.00168 9.00321 8 9.00488Z" fill="#393939"/>
</svg>
