<svg width="24" height="24" viewBox="0 0 48 48" fill="none" xmlns="http://www.w3.org/2000/svg">
<path fill-rule="evenodd" clip-rule="evenodd" d="M8 7.56003C8 6.45546 8.89543 5.56003 10 5.56003H38C39.1046 5.56003 40 6.45546 40 7.56003V41.56C40 42.6646 39.1046 43.56 38 43.56H10C8.89543 43.56 8 42.6646 8 41.56V7.56003ZM12 9.56003V39.56H36V9.56003H12Z" fill="#010101"/>
<path fill-rule="evenodd" clip-rule="evenodd" d="M32 35.56H16V31.56H32V35.56Z" fill="#010101"/>
<path d="M23.74 18.2819C24.3 17.9019 24.74 17.6019 24.74 17.1419C24.74 16.6819 24.38 16.2819 23.44 16.2819C22.9953 16.3002 22.5592 16.411 22.1598 16.6073C21.7603 16.8036 21.4062 17.081 21.12 17.4219L19 15.0019C19.627 14.3496 20.3829 13.8349 21.2196 13.4906C22.0563 13.1463 22.9555 12.9799 23.86 13.0019C26.76 13.0019 28.56 14.4019 28.56 16.5219C28.5454 17.2098 28.3537 17.8822 28.0034 18.4743C27.653 19.0664 27.1559 19.5581 26.56 19.9019C25.84 20.4219 25.22 20.8619 25.22 21.5619C25.2211 21.8871 25.3421 22.2005 25.56 22.4419L22.64 23.1819C22.1847 22.6163 21.9438 21.9079 21.96 21.1819C21.9696 20.5834 22.1399 19.9985 22.453 19.4883C22.7662 18.9781 23.2107 18.5615 23.74 18.2819ZM23.9 23.9619C24.449 23.9619 24.9755 24.18 25.3637 24.5682C25.7519 24.9564 25.97 25.4829 25.97 26.0319C25.97 26.5809 25.7519 27.1075 25.3637 27.4957C24.9755 27.8839 24.449 28.1019 23.9 28.1019C23.351 28.1019 22.8245 27.8839 22.4363 27.4957C22.0481 27.1075 21.83 26.5809 21.83 26.0319C21.83 25.4829 22.0481 24.9564 22.4363 24.5682C22.8245 24.18 23.351 23.9619 23.9 23.9619Z" fill="#010101"/>
</svg>
