<svg xmlns="http://www.w3.org/2000/svg" width="24" height="24" viewBox="0 0 24 24">
  <path d="M5,5 L5,19 L19,19 L19,8.82842712 L15.1715729,5 L5,5 Z M4,3 L16,3 L21,8 L21,20 C21,20.5522847 20.5522847,21 20,21 L4,21 C3.44771525,21 3,20.5522847 3,20 L3,4 C3,3.44771525 3.44771525,3 4,3 Z M9,19 L15,19 L15,14 L9,14 L9,19 Z M8,12 L16,12 C16.5522847,12 17,12.4477153 17,13 L17,20 C17,20.5522847 16.5522847,21 16,21 L8,21 C7.44771525,21 7,20.5522847 7,20 L7,13 C7,12.4477153 7.44771525,12 8,12 Z M7.5,7 L13.5,7 C13.7761424,7 14,7.22385763 14,7.5 L14,8.5 C14,8.77614237 13.7761424,9 13.5,9 L7.5,9 C7.22385763,9 7,8.77614237 7,8.5 L7,7.5 C7,7.22385763 7.22385763,7 7.5,7 Z"/>
</svg>
