<svg xmlns="http://www.w3.org/2000/svg" width="24" height="24" viewBox="0 0 24 24">
  <path fill-rule="evenodd" d="M11,19 L19,19 L19,5 L5,5 L5,13 L10.5,13 C10.7761424,13 11,13.2238576 11,13.5 L11,19 Z M4,3 L20,3 C20.5522847,3 21,3.44771525 21,4 L21,20 C21,20.5522847 20.5522847,21 20,21 L4,21 C3.44771525,21 3,20.5522847 3,20 L3,4 L3,4 C3,3.44771525 3.44771525,3 4,3 L4,3 Z M14.5355339,8.82842712 L13.8284271,8.12132034 L17.363961,7.41421356 L16.6568542,10.9497475 L15.9497475,10.2426407 L13.1213203,13.0710678 L11.7071068,11.6568542 L14.5355339,8.82842712 Z"/>
</svg>
