<svg xmlns="http://www.w3.org/2000/svg" width="24" height="24" viewBox="0 0 24 24">
  <path d="M15.6056183,14.1921711 L20.423562,19.0104076 C20.6188123,19.2056698 20.6188123,19.5222523 20.423562,19.7175144 L19.7164982,20.4246212 C19.5212479,20.6198833 19.2046847,20.6198833 19.0094344,20.4246212 L14.1914907,15.6063847 C13.0229812,16.4815965 11.571814,17 9.99957448,17 C6.13381624,17 3,13.8659932 3,10 C3,6.13400675 6.13381624,3 9.99957448,3 C13.8653327,3 16.999149,6.13400675 16.999149,10 C16.999149,11.5723351 16.4807769,13.0235906 15.6056183,14.1921711 Z M9.99957448,15 C12.7608304,15 14.9992705,12.7614237 14.9992705,10 C14.9992705,7.23857625 12.7608304,5 9.99957448,5 C7.23831859,5 4.99987842,7.23857625 4.99987842,10 C4.99987842,12.7614237 7.23831859,15 9.99957448,15 Z"/>
</svg>
