<svg xmlns="http://www.w3.org/2000/svg" width="24" height="24" viewBox="0 0 24 24">
  <path d="M7.79271465,6.30779041 L6.30779041,7.79271465 L7.81186104,9.45510851 C7.55420613,9.87822571 7.35886583,10.343462 7.2385868,10.8380707 L5,10.95 L5,13.05 L7.2385868,13.1619293 C7.35886583,13.656538 7.55420613,14.1217743 7.81186104,14.5448915 L6.30779041,16.2072853 L7.79271465,17.6922096 L9.45510851,16.188139 C9.87822571,16.4457939 10.343462,16.6411342 10.8380707,16.7614132 L10.95,19 L13.05,19 L13.1619293,16.7614132 C13.656538,16.6411342 14.1217743,16.4457939 14.5448915,16.188139 L16.2072853,17.6922096 L17.6922096,16.2072853 L16.188139,14.5448915 C16.4457939,14.1217743 16.6411342,13.656538 16.7614132,13.1619293 L19,13.05 L19,10.95 L16.7614132,10.8380707 C16.6411342,10.343462 16.4457939,9.87822571 16.188139,9.45510851 L17.6922096,7.79271465 L16.2072853,6.30779041 L14.5448915,7.81186104 C14.1217743,7.55420613 13.656538,7.35886583 13.1619293,7.2385868 L13.05,5 L10.95,5 L10.8380707,7.2385868 C10.343462,7.35886583 9.87822571,7.55420613 9.45510851,7.81186104 L7.79271465,6.30779041 Z M9.41068423,5.74883876 L9.45187149,4.92509357 C9.49178719,4.12677956 10.1506887,3.5 10.95,3.5 L13.05,3.5 C13.8493113,3.5 14.5082128,4.12677956 14.5481285,4.92509357 L14.5893158,5.74883876 L15.2009154,5.19548674 C15.7936333,4.65921815 16.7027471,4.68193181 17.2679455,5.24713024 L18.7528698,6.73205448 C19.3180682,7.29725291 19.3407818,8.20636672 18.8045133,8.79908464 L18.2511612,9.41068423 L19.0749064,9.45187149 C19.8732204,9.49178719 20.5,10.1506887 20.5,10.95 L20.5,13.05 C20.5,13.8493113 19.8732204,14.5082128 19.0749064,14.5481285 L18.2511612,14.5893158 L18.8045133,15.2009154 C19.3407818,15.7936333 19.3180682,16.7027471 18.7528698,17.2679455 L17.2679455,18.7528698 C16.7027471,19.3180682 15.7936333,19.3407818 15.2009154,18.8045133 L14.5893158,18.2511612 L14.5481285,19.0749064 C14.5082128,19.8732204 13.8493113,20.5 13.05,20.5 L10.95,20.5 C10.1506887,20.5 9.49178719,19.8732204 9.45187149,19.0749064 L9.41068423,18.2511612 L8.79908464,18.8045133 C8.20636672,19.3407818 7.29725291,19.3180682 6.73205448,18.7528698 L5.24713024,17.2679455 C4.68193181,16.7027471 4.65921815,15.7936333 5.19548674,15.2009154 L5.74883876,14.5893158 L4.92509357,14.5481285 C4.12677956,14.5082128 3.5,13.8493113 3.5,13.05 L3.5,10.95 C3.5,10.1506887 4.12677956,9.49178719 4.92509357,9.45187149 L5.74883876,9.41068423 L5.19548674,8.79908464 C4.65921815,8.20636672 4.68193181,7.29725291 5.24713024,6.73205448 L6.73205448,5.24713024 C7.29725291,4.68193181 8.20636672,4.65921815 8.79908464,5.19548674 L9.41068423,5.74883876 Z M12,15.75 C9.92893219,15.75 8.25,14.0710678 8.25,12 C8.25,9.92893219 9.92893219,8.25 12,8.25 C14.0710678,8.25 15.75,9.92893219 15.75,12 C15.75,14.0710678 14.0710678,15.75 12,15.75 Z M12,14.25 C13.2426407,14.25 14.25,13.2426407 14.25,12 C14.25,10.7573593 13.2426407,9.75 12,9.75 C10.7573593,9.75 9.75,10.7573593 9.75,12 C9.75,13.2426407 10.7573593,14.25 12,14.25 Z"/>
</svg>
