<?xml version="1.0" encoding="UTF-8"?>
<svg width="24px" height="24px" viewBox="0 0 24 24" version="1.1" xmlns="http://www.w3.org/2000/svg" xmlns:xlink="http://www.w3.org/1999/xlink">
    <!-- Generator: Sketch 52.4 (67378) - http://www.bohemiancoding.com/sketch -->
    <title>shipping</title>
    <desc>Created with Sketch.</desc>
    <g id="shipping" stroke="none" stroke-width="1" fill="none" fill-rule="evenodd">
        <path d="M9.82929429,17 C9.41745788,18.1651924 8.30621883,19 7,19 C5.69378117,19 4.58254212,18.1651924 4.17070571,17 L2,17 L2,6 C2,5.44771525 2.44771525,5 3,5 L15.0523682,5 L15.0546265,8 L18.0537109,8 L22,11.0670166 L22,17 L19.8292943,17 C19.4174579,18.1651924 18.3062188,19 17,19 C15.6937812,19 14.5825421,18.1651924 14.1707057,17 L9.82929429,17 Z M9.82929429,15 L13,15 L13,7 L4,7 L4,15 L4.17070571,15 C4.58254212,13.8348076 5.69378117,13 7,13 C8.30621883,13 9.41745788,13.8348076 9.82929429,15 Z M17,17 C17.5522847,17 18,16.5522847 18,16 C18,15.4477153 17.5522847,15 17,15 C16.4477153,15 16,15.4477153 16,16 C16,16.5522847 16.4477153,17 17,17 Z M7,17 C7.55228475,17 8,16.5522847 8,16 C8,15.4477153 7.55228475,15 7,15 C6.44771525,15 6,15.4477153 6,16 C6,16.5522847 6.44771525,17 7,17 Z M15,10 L15,12.5 L20,12.5 L20,12.0456382 L17.3679048,10 L15,10 Z" id="Combined-Shape" fill="#232222"></path>
    </g>
</svg>