<svg xmlns="http://www.w3.org/2000/svg" width="24" height="24" viewBox="0 0 24 24">
  <path d="M20,11.4074074 L20,20.0909091 C20,20.5929861 19.6020309,21 19.1111111,21 L4.88888889,21 C4.39796911,21 4,20.5929861 4,20.0909091 L4,11.4074074 L3,11.1111111 L3,5 L3,5 C3,4.44771525 3.44771525,4 4,4 L4,4 L8,4 L12,4 L16,4 L20,4 C20.5522847,4 21,4.44771525 21,5 L21,11.1111111 L20,11.4074074 Z M18,11.9570276 C17.904308,11.9570276 17.8086159,11.9432936 17.7159117,11.9158257 L16,11.4074074 L14.2840883,11.9158257 L14.2840883,11.9158257 C14.0986798,11.9707615 13.9013202,11.9707615 13.7159117,11.9158257 L12,11.4074074 L10.2840883,11.9158257 L10.2840883,11.9158257 C10.0986798,11.9707615 9.90132016,11.9707615 9.71591167,11.9158257 L8,11.4074074 L6.28408833,11.9158257 L6.28408833,11.9158257 C6.19138408,11.9432936 6.09569204,11.9570276 6,11.9570276 L6,19 L8,19 L8,14 L14,14 L14,19 L18,19 L18,11.9570276 Z M10,16 L10,19 L12,19 L12,16 L10,16 Z M5,9.61775884 L6,9.91405513 L7,9.61775884 L7,6 L5,6 L5,9.61775884 Z M9,9.61775884 L10,9.91405513 L11,9.61775884 L11,6 L9,6 L9,9.61775884 Z M13,6 L13,9.61775884 L14,9.91405513 L15,9.61775884 L15,6 L13,6 Z M17,9.61775884 L18,9.91405513 L19,9.61775884 L19,6 L17,6 L17,9.61775884 Z"/>
</svg>
