<?xml version="1.0" encoding="UTF-8"?>
<svg width="24px" height="24px" viewBox="0 0 24 24" version="1.1" xmlns="http://www.w3.org/2000/svg" xmlns:xlink="http://www.w3.org/1999/xlink">
    <!-- Generator: Sketch 52.4 (67378) - http://www.bohemiancoding.com/sketch -->
    <title>sort_descend</title>
    <desc>Created with Sketch.</desc>
    <g id="sort_descend" stroke="none" stroke-width="1" fill="none" fill-rule="evenodd">
        <path d="M18,14 L20,14 L17,17 L14,14 L16,14 L16,7.5 C16,7.22385763 16.2238576,7 16.5,7 L17.5,7 C17.7761424,7 18,7.22385763 18,7.5 L18,14 Z M4.5,7 L13.5,7 C13.7761424,7 14,7.22385763 14,7.5 L14,8.5 C14,8.77614237 13.7761424,9 13.5,9 L4.5,9 C4.22385763,9 4,8.77614237 4,8.5 L4,7.5 C4,7.22385763 4.22385763,7 4.5,7 Z M4.5,11 L11.5,11 C11.7761424,11 12,11.2238576 12,11.5 L12,12.5 C12,12.7761424 11.7761424,13 11.5,13 L4.5,13 C4.22385763,13 4,12.7761424 4,12.5 L4,11.5 C4,11.2238576 4.22385763,11 4.5,11 Z M4.5,15 L11.5,15 C11.7761424,15 12,15.2238576 12,15.5 L12,16.5 C12,16.7761424 11.7761424,17 11.5,17 L4.5,17 C4.22385763,17 4,16.7761424 4,16.5 L4,15.5 C4,15.2238576 4.22385763,15 4.5,15 Z" id="Combined-Shape" fill="#000000"></path>
    </g>
</svg>