<?xml version="1.0" encoding="UTF-8"?>
<svg width="24px" height="24px" viewBox="0 0 24 24" version="1.1" xmlns="http://www.w3.org/2000/svg" xmlns:xlink="http://www.w3.org/1999/xlink">
    <!-- Generator: Sketch 52.4 (67378) - http://www.bohemiancoding.com/sketch -->
    <title>sort_ascend</title>
    <desc>Created with Sketch.</desc>
    <g id="sort_ascend" stroke="none" stroke-width="1" fill="none" fill-rule="evenodd">
        <path d="M18,10 L18,16.5 C18,16.7761424 17.7761424,17 17.5,17 L16.5,17 C16.2238576,17 16,16.7761424 16,16.5 L16,10 L14,10 L17,7 L20,10 L18,10 Z M4.5,17 C4.22385763,17 4,16.7761424 4,16.5 L4,15.5 C4,15.2238576 4.22385763,15 4.5,15 L13.5,15 C13.7761424,15 14,15.2238576 14,15.5 L14,16.5 C14,16.7761424 13.7761424,17 13.5,17 L4.5,17 Z M4.5,13 C4.22385763,13 4,12.7761424 4,12.5 L4,11.5 C4,11.2238576 4.22385763,11 4.5,11 L11.5,11 C11.7761424,11 12,11.2238576 12,11.5 L12,12.5 C12,12.7761424 11.7761424,13 11.5,13 L4.5,13 Z M4.5,9 C4.22385763,9 4,8.77614237 4,8.5 L4,7.5 C4,7.22385763 4.22385763,7 4.5,7 L11.5,7 C11.7761424,7 12,7.22385763 12,7.5 L12,8.5 C12,8.77614237 11.7761424,9 11.5,9 L4.5,9 Z" id="Shape" fill="#000000"></path>
    </g>
</svg>