<svg width="48" height="48" viewBox="0 0 48 48" fill="none" xmlns="http://www.w3.org/2000/svg">
<path d="M10 14C10 11.7909 11.7909 10 14 10H34C36.2091 10 38 11.7909 38 14V34C38 36.2091 36.2091 38 34 38H14C11.7909 38 10 36.2091 10 34V14Z" fill="#393939"/>
<path d="M34 34V38H14V36V34H34ZM34 14H14V38L13.7939 37.9951C11.7488 37.8913 10.1087 36.2512 10.0049 34.2061L10 34V14C10 11.7909 11.7909 10 14 10H34C36.2091 10 38 11.7909 38 14V34C38 36.14 36.3194 37.8879 34.2061 37.9951L34 38V14Z" fill="black" fill-opacity="0.3" style="mix-blend-mode:darken"/>
</svg>
