<?xml version="1.0" encoding="UTF-8"?>
<svg width="24px" height="24px" viewBox="0 0 24 24" version="1.1" xmlns="http://www.w3.org/2000/svg" xmlns:xlink="http://www.w3.org/1999/xlink">
    <!-- Generator: Sketch 53 (72520) - https://sketchapp.com -->
    <title>star-solid</title>
    <desc>Created with Sketch.</desc>
    <g id="star-solid" stroke="none" stroke-width="1" fill="none" fill-rule="evenodd">
        <path d="M11.8752386,18.1063652 L6.94327898,20.8670648 C6.70231816,21.0019444 6.39763934,20.9159485 6.26275979,20.6749877 C6.20464451,20.5711654 6.18545724,20.4500217 6.2086453,20.3333222 L7.31016734,14.7896468 L3.16052661,10.9521775 C2.95778755,10.7646902 2.94542355,10.4483493 3.13291085,10.2456102 C3.21369313,10.1582564 3.32297839,10.1025728 3.44113171,10.0885638 L9.05386941,9.4230836 L11.42121,4.29069753 C11.5368712,4.03994447 11.8339087,3.93043087 12.0846617,4.04609207 C12.1927032,4.09592678 12.2794325,4.18265605 12.3292672,4.29069753 L14.6966078,9.4230836 L20.3093455,10.0885638 C20.5835671,10.1210772 20.7795104,10.3697351 20.746997,10.6439567 C20.732988,10.76211 20.6773044,10.8713952 20.5899506,10.9521775 L16.4403099,14.7896468 L17.5418319,20.3333222 C17.595649,20.6041697 17.4197111,20.8673623 17.1488637,20.9211793 C17.0321642,20.9443674 16.9110206,20.9251801 16.8071982,20.8670648 L11.8752386,18.1063652 Z" id="Icon-/-star" fill="#000000"></path>
    </g>
</svg>