<svg xmlns="http://www.w3.org/2000/svg" width="24" height="24" viewBox="0 0 24 24">
  <path d="M12,15.5079895 L15.0711651,17.2270961 L14.3852397,13.7750114 L16.9692494,11.385393 L13.4741592,10.9709939 L12,7.77502193 L10.5258408,10.9709939 L7.03075055,11.385393 L9.61476027,13.7750114 L8.92883494,17.2270961 L12,15.5079895 Z M12,17.8 L7.06804036,20.5606996 C6.82707954,20.6955792 6.52240072,20.6095833 6.38752117,20.3686225 C6.32940589,20.2648002 6.31021862,20.1436565 6.33340668,20.026957 L7.43492872,14.4832816 L3.28528799,10.6458123 C3.08254893,10.458325 3.07018493,10.1419841 3.25767223,9.93924501 C3.33845451,9.85189124 3.44773977,9.79620761 3.56589309,9.78219864 L9.17863079,9.11671843 L11.5459714,3.98433236 C11.6616326,3.7335793 11.9586701,3.6240657 12.2094231,3.7397269 C12.3174646,3.78956161 12.4041939,3.87629088 12.4540286,3.98433236 L14.8213692,9.11671843 L20.4341069,9.78219864 C20.7083285,9.81471202 20.9042718,10.0633699 20.8717584,10.3375915 C20.8577494,10.4557448 20.8020658,10.56503 20.714712,10.6458123 L16.5650713,14.4832816 L17.6665933,20.026957 C17.7204104,20.2978045 17.5444725,20.5609971 17.2736251,20.6148141 C17.1569256,20.6380022 17.035782,20.6188149 16.9319596,20.5606996 L12,17.8 Z"/>
</svg>
