<svg xmlns="http://www.w3.org/2000/svg" width="24" height="24" viewBox="0 0 24 24">
  <path d="M10,19.747965 C10.6392398,19.912494 11.3094009,20 12,20 L12,13.4142136 L10,15.4142136 L10,19.747965 Z M8,18.9297424 L8,17.4142136 L7.09435615,18.3198574 C7.3812824,18.542899 7.68380062,18.746831 8,18.9297424 Z M5.68014258,16.9056439 L16.9056439,5.68014258 C15.5509601,4.62708161 13.8487115,4 12,4 C7.581722,4 4,7.581722 4,12 C4,13.8487115 4.62708161,15.5509601 5.68014258,16.9056439 Z M18.3198574,7.09435615 L18,7.41421356 L18,17.2916488 C19.2447268,15.8813824 20,14.0288929 20,12 C20,10.1512885 19.3729184,8.44903985 18.3198574,7.09435615 Z M16,18.9297424 L16,9.41421356 L14,11.4142136 L14,19.747965 C14.7095418,19.5653416 15.3809871,19.287822 16,18.9297424 Z M12,22 C6.4771525,22 2,17.5228475 2,12 C2,6.4771525 6.4771525,2 12,2 C17.5228475,2 22,6.4771525 22,12 C22,17.5228475 17.5228475,22 12,22 Z"/>
</svg>
