<svg xmlns="http://www.w3.org/2000/svg" width="24" height="24" viewBox="0 0 24 24">
  <path d="M18.7850202,7.7596485 L15.5173891,10.0936708 C15.8251746,10.6603711 16,11.3097692 16,12 C16,12.6902308 15.8251746,13.3396289 15.5173891,13.9063292 L18.7850202,16.2403515 C19.5549236,15.0110204 20,13.5574868 20,12 C20,10.4425132 19.5549236,8.98897964 18.7850202,7.7596485 Z M16.2403515,5.21497976 C15.0110204,4.44507636 13.5574868,4 12,4 C10.4425132,4 8.98897964,4.44507636 7.7596485,5.21497976 L10.0936708,8.48261094 C10.6603711,8.17482536 11.3097692,8 12,8 C12.6902308,8 13.3396289,8.17482536 13.9063292,8.48261094 L16.2403515,5.21497976 Z M16.2403515,18.7850202 L13.9063292,15.5173891 C13.3396289,15.8251746 12.6902308,16 12,16 C11.3097692,16 10.6603711,15.8251746 10.0936708,15.5173891 L7.7596485,18.7850202 C8.98897964,19.5549236 10.4425132,20 12,20 C13.5574868,20 15.0110204,19.5549236 16.2403515,18.7850202 Z M5.21497976,7.7596485 C4.44507636,8.98897964 4,10.4425132 4,12 C4,13.5574868 4.44507636,15.0110204 5.21497976,16.2403515 L8.48261094,13.9063292 C8.17482536,13.3396289 8,12.6902308 8,12 C8,11.3097692 8.17482536,10.6603711 8.48261094,10.0936708 L5.21497976,7.7596485 Z M12,22 C6.4771525,22 2,17.5228475 2,12 C2,6.4771525 6.4771525,2 12,2 C17.5228475,2 22,6.4771525 22,12 C22,17.5228475 17.5228475,22 12,22 Z M12,14 C13.1045695,14 14,13.1045695 14,12 C14,10.8954305 13.1045695,10 12,10 C10.8954305,10 10,10.8954305 10,12 C10,13.1045695 10.8954305,14 12,14 Z"/>
</svg>
