<svg xmlns="http://www.w3.org/2000/svg" width="24" height="24" viewBox="0 0 24 24">
  <path d="M12.8994949,2.5 L19.6437025,3.84884152 C19.8416331,3.88842764 19.9963487,4.04314316 20.0359348,4.24107379 L21.3847763,10.9852814 L10.7781746,21.5918831 C10.3876503,21.9824074 9.75448532,21.9824074 9.36396103,21.5918831 L2.29289322,14.5208153 C1.90236893,14.130291 1.90236893,13.497126 2.29289322,13.1066017 L12.8994949,2.5 Z M4.41421356,13.8137085 L10.0710678,19.4705627 L19.2136986,10.3279319 L18.2708896,5.61388673 L13.5568444,4.67107769 L4.41421356,13.8137085 Z M8.65685425,15.2279221 C7.87580567,14.4468735 7.87580567,13.1805435 8.65685425,12.3994949 C9.43790283,11.6184464 10.7042328,11.6184464 11.4852814,12.3994949 C12.26633,13.1805435 12.26633,14.4468735 11.4852814,15.2279221 C10.7042328,16.0089706 9.43790283,16.0089706 8.65685425,15.2279221 Z"/>
</svg>
