<svg xmlns="http://www.w3.org/2000/svg" width="24" height="24" viewBox="0 0 24 24">
  <path d="M13,15.8739825 L13,20 L11,20 L11,15.8739825 C9.27477279,15.4299397 8,13.8638394 8,12 C8,9.790861 9.790861,8 12,8 C14.209139,8 16,9.790861 16,12 C16,13.8638394 14.7252272,15.4299397 13,15.8739825 Z M12,14 C13.1045695,14 14,13.1045695 14,12 C14,10.8954305 13.1045695,10 12,10 C10.8954305,10 10,10.8954305 10,12 C10,13.1045695 10.8954305,14 12,14 Z M12,5.30940108 L6.05280096,8.65470054 L6.05280096,15.3452995 L12,18.6905989 L17.947199,15.3452995 L17.947199,8.65470054 L12,5.30940108 Z M12.2451306,3.13788597 L19.7451306,7.35663597 L19.7451306,7.35663597 C19.9025691,7.44519512 20,7.61178709 20,7.79242374 L20,16.2075763 L20,16.2075763 C20,16.3882129 19.9025691,16.5548049 19.7451306,16.643364 L12.2451306,20.862114 L12.2451306,20.862114 C12.0929238,20.9477303 11.9070762,20.9477303 11.7548694,20.862114 L4.25486938,16.643364 L4.25486938,16.643364 C4.09743089,16.5548049 4,16.3882129 4,16.2075763 L4,7.79242374 L4,7.79242374 C4,7.61178709 4.09743089,7.44519512 4.25486938,7.35663597 L11.7548694,3.13788597 L11.7548694,3.13788597 C11.9070762,3.05226967 12.0929238,3.05226967 12.2451306,3.13788597 Z"/>
</svg>
