<?xml version="1.0" encoding="UTF-8"?>
<svg width="24px" height="24px" viewBox="0 0 24 24" version="1.1" xmlns="http://www.w3.org/2000/svg" xmlns:xlink="http://www.w3.org/1999/xlink">
    <!-- Generator: Sketch 52.4 (67378) - http://www.bohemiancoding.com/sketch -->
    <title>thumb-up</title>
    <desc>Created with Sketch.</desc>
    <g id="thumb-up" stroke="none" stroke-width="1" fill="none" fill-rule="evenodd">
        <path d="M3,10 L6,10 L6,20 L3,20 C2.44771525,20 2,19.5522847 2,19 L2,11 C2,10.4477153 2.44771525,10 3,10 Z M10.8553654,10.1777365 L9.03771973,11.1806918 L9.03771973,18 L18.0333988,18 L20.0319014,12.7660628 L20.0320764,12 L13.0403448,12 L14.2158819,6 L13.7029411,6 L10.8553654,10.1777365 Z M15.4702148,10 L21.0320584,10 C21.5757835,10 22.0198736,10.4344399 22.0318172,10.9780338 L22.0318172,13.1351318 L19.6550776,19.3596448 C19.5063605,19.7454875 19.1354994,20 18.7219883,20 L7.03771973,20 L7.03771973,10 L9.47143555,8.65710449 L12.3480381,4.43678214 C12.5343033,4.16350863 12.8436304,4 13.1743465,4 L15.430817,4 C15.9831017,4 16.430817,4.44771525 16.430817,5 C16.430817,5.06454106 16.4245687,5.12893054 16.4121595,5.19226743 L15.4702148,10 Z" id="Combined-Shape" fill="#000000" fill-rule="nonzero"></path>
    </g>
</svg>