<?xml version="1.0" encoding="UTF-8"?>
<svg width="24px" height="24px" viewBox="0 0 24 24" version="1.1" xmlns="http://www.w3.org/2000/svg" xmlns:xlink="http://www.w3.org/1999/xlink">
    <!-- Generator: Sketch 52.4 (67378) - http://www.bohemiancoding.com/sketch -->
    <title>thumb-down</title>
    <desc>Created with Sketch.</desc>
    <g id="thumb-down" stroke="none" stroke-width="1" fill="none" fill-rule="evenodd">
        <path d="M21.0318172,14 L18.0318172,14 L18.0318172,4 L21.0318172,4 C21.5841019,4 22.0318172,4.44771525 22.0318172,5 L22.0318172,13 C22.0318172,13.5522847 21.5841019,14 21.0318172,14 Z M13.1764518,13.8222635 L14.9940974,12.8193082 L14.9940974,6 L5.99841839,6 L3.99991572,11.2339372 L3.99974078,12 L10.9914723,12 L9.81593521,18 L10.3288761,18 L13.1764518,13.8222635 Z M8.56160232,14 L2.99975871,14 C2.45603361,14 2.01194359,13.5655601 2,13.0219662 L2,10.8648682 L4.37673958,4.64035522 C4.52545668,4.25451246 4.89631779,4 5.30982887,4 L16.9940974,4 L16.9940974,14 L14.5603816,15.3428955 L11.6837791,19.5632179 C11.4975139,19.8364914 11.1881868,20 10.8574707,20 L8.60100021,20 C8.04871546,20 7.60100021,19.5522847 7.60100021,19 C7.60100021,18.9354589 7.6072485,18.8710695 7.61965764,18.8077326 L8.56160232,14 Z" id="Combined-Shape" fill="#000000" fill-rule="nonzero"></path>
    </g>
</svg>