<?xml version="1.0" encoding="utf-8"?>
<!-- Generator: Adobe Illustrator 27.7.0, SVG Export Plug-In . SVG Version: 6.00 Build 0)  -->
<svg version="1.1" id="Layer_1" xmlns="http://www.w3.org/2000/svg" xmlns:xlink="http://www.w3.org/1999/xlink" x="0px" y="0px"
	 viewBox="0 0 48 48" style="enable-background:new 0 0 48 48;" xml:space="preserve">
<style type="text/css">
	.st0{fill:#393939;}
</style>
<path class="st0" d="M30,10v8h8v-8H30z M28,6h12c1.1,0,2,0.9,2,2v12c0,1.1-0.9,2-2,2H28c-1.1,0-2-0.9-2-2V8C26,6.9,26.9,6,28,6z
	 M10,30v8h8v-8H10z M8,26h12c1.1,0,2,0.9,2,2v12c0,1.1-0.9,2-2,2H8c-1.1,0-2-0.9-2-2V28C6,26.9,6.9,26,8,26z M28,26h12
	c1.1,0,2,0.9,2,2v12c0,1.1-0.9,2-2,2H28c-1.1,0-2-0.9-2-2V28C26,26.9,26.9,26,28,26z M30,30v8l8,0v-8H30z M10,10v8h8v-8H10z M8,6h12
	c1.1,0,2,0.9,2,2v12c0,1.1-0.9,2-2,2H8c-1.1,0-2-0.9-2-2V8C6,6.9,6.9,6,8,6z"/>
</svg>
