<svg xmlns="http://www.w3.org/2000/svg" width="24" height="24" viewBox="0 0 24 24">
  <path fill-rule="evenodd" d="M19,8 L19,20 C19,20.5522847 18.5522847,21 18,21 L6,21 C5.44771525,21 5,20.5522847 5,20 L5,8 L3.5,8 C3.22385763,8 3,7.77614237 3,7.5 L3,6.5 C3,6.22385763 3.22385763,6 3.5,6 L3.5,6 L20.5,6 C20.7761424,6 21,6.22385763 21,6.5 L21,7.5 C21,7.77614237 20.7761424,8 20.5,8 L19,8 Z M7,8 L7,19 L17,19 L17,8 L7,8 Z M9.5,3 L14.5,3 C14.7761424,3 15,3.22385763 15,3.5 L15,4.5 C15,4.77614237 14.7761424,5 14.5,5 L9.5,5 C9.22385763,5 9,4.77614237 9,4.5 L9,3.5 L9,3.5 C9,3.22385763 9.22385763,3 9.5,3 Z M9.5,9.99999659 L10.5,9.99999659 C10.7761424,9.99999659 11,10.2238542 11,10.4999966 L11,16.5 C11,16.7761424 10.7761424,17 10.5,17 L9.5,17 L9.5,17 C9.22385763,17 9,16.7761424 9,16.5 L9,10.4999966 C9,10.2238542 9.22385763,9.99999659 9.5,9.99999659 Z M13.5,9.99999659 L14.5,9.99999659 C14.7761424,9.99999659 15,10.2238542 15,10.4999966 L15,16.5 C15,16.7761424 14.7761424,17 14.5,17 L13.5,17 L13.5,17 C13.2238576,17 13,16.7761424 13,16.5 L13,10.4999966 C13,10.2238542 13.2238576,9.99999659 13.5,9.99999659 Z"/>
</svg>
