<svg xmlns="http://www.w3.org/2000/svg" width="24" height="24" viewBox="0 0 24 24">
  <path fill-rule="evenodd" d="M19,8 L19,21 C19,21.5522847 18.5522847,22 18,22 L6,22 C5.44771525,22 5,21.5522847 5,21 L5,8 L3.5,8 C3.22385763,8 3,7.77614237 3,7.5 L3,6.5 C3,6.22385763 3.22385763,6 3.5,6 L3.5,6 L20.5,6 C20.7761424,6 21,6.22385763 21,6.5 L21,7.5 C21,7.77614237 20.7761424,8 20.5,8 L19,8 Z M7,8 L7,20 L17,20 L17,8 L7,8 Z M9.5,2 L14.5,2 C14.7761424,2 15,2.22385763 15,2.5 L15,3.5 C15,3.77614237 14.7761424,4 14.5,4 L9.5,4 C9.22385763,4 9,3.77614237 9,3.5 L9,2.5 L9,2.5 C9,2.22385763 9.22385763,2 9.5,2 Z M9.5,10 L10.5,10 C10.7761424,10 11,10.2238576 11,10.5 L11,17.5 C11,17.7761424 10.7761424,18 10.5,18 L9.5,18 C9.22385763,18 9,17.7761424 9,17.5 L9,10.5 C9,10.2238576 9.22385763,10 9.5,10 Z M13.5,10 L14.5,10 C14.7761424,10 15,10.2238576 15,10.5 L15,17.5 C15,17.7761424 14.7761424,18 14.5,18 L13.5,18 C13.2238576,18 13,17.7761424 13,17.5 L13,10.5 C13,10.2238576 13.2238576,10 13.5,10 Z"/>
</svg>
