<svg xmlns="http://www.w3.org/2000/svg" width="24" height="24" viewBox="0 0 24 24">
  <path d="M16.75,21 L3,21 C2.44771525,21 2,20.5522847 2,20 L2,19 C2,15.6862915 4.6862915,13 8,13 L12,13 C13.2292096,13 14.3720856,13.3696378 15.3235373,14.0038226 C15.382041,14.001283 15.4408707,14 15.5,14 L17.5,14 C19.709139,14 21.5,15.790861 21.5,18 L21.5,20 C21.5,20.5522847 21.0522847,21 20.5,21 L16.75,21 Z M18,19 L19.5,19 L19.5,18 C19.5,16.8954305 18.6045695,16 17.5,16 L17.1973068,16 C17.7078171,16.8825201 18,17.9071386 18,19 Z M10,11 C7.790861,11 6,9.209139 6,7 C6,4.790861 7.790861,3 10,3 C12.209139,3 14,4.790861 14,7 C14,9.209139 12.209139,11 10,11 Z M10,9 C11.1045695,9 12,8.1045695 12,7 C12,5.8954305 11.1045695,5 10,5 C8.8954305,5 8,5.8954305 8,7 C8,8.1045695 8.8954305,9 10,9 Z M16,19 C16,16.790861 14.209139,15 12,15 L8,15 C5.790861,15 4,16.790861 4,19 L16,19 Z M17,11 C17.5522847,11 18,10.5522847 18,10 C18,9.44771525 17.5522847,9 17,9 C16.4477153,9 16,9.44771525 16,10 C16,10.5522847 16.4477153,11 17,11 Z M17,13 C15.3431458,13 14,11.6568542 14,10 C14,8.34314575 15.3431458,7 17,7 C18.6568542,7 20,8.34314575 20,10 C20,11.6568542 18.6568542,13 17,13 Z"/>
</svg>
