<svg xmlns="http://www.w3.org/2000/svg" width="24" height="24" viewBox="0 0 24 24">
  <path d="M12,9 C13.1045695,9 14,8.1045695 14,7 C14,5.8954305 13.1045695,5 12,5 C10.8954305,5 10,5.8954305 10,7 C10,8.1045695 10.8954305,9 12,9 Z M12,11 C9.790861,11 8,9.209139 8,7 C8,4.790861 9.790861,3 12,3 C14.209139,3 16,4.790861 16,7 C16,9.209139 14.209139,11 12,11 Z M18,19 C18,16.790861 16.209139,15 14,15 L10,15 C7.790861,15 6,16.790861 6,19 L18,19 Z M10,13 L14,13 C17.3137085,13 20,15.6862915 20,19 L20,20 L20,20 C20,20.5522847 19.5522847,21 19,21 L5,21 L5,21 C4.44771525,21 4,20.5522847 4,20 L4,19 C4,15.6862915 6.6862915,13 10,13 Z"/>
</svg>
