<svg xmlns="http://www.w3.org/2000/svg" width="24" height="24" viewBox="0 0 24 24">
  <path d="M6.96484245,3.3582551 C8.44362675,2.49477234 10.1640332,2 12,2 C17.5228475,2 22,6.4771525 22,12 C22,17.5228475 17.5228475,22 12,22 C6.4771525,22 2,17.5228475 2,12 C2,10.7339618 2.23527153,9.52287427 2.66447847,8.40807346 L4.52194348,9.15162262 C4.18469627,10.0365134 4,10.9966876 4,12 C4,16.418278 7.581722,20 12,20 C16.418278,20 20,16.418278 20,12 C20,7.581722 16.418278,4 12,4 C10.6008024,4 9.28550183,4.35920629 8.14128442,4.99043288 L8.83666992,5.9552002 L5.0423584,5.9552002 L6.22595215,2.33312988 L6.96484245,3.3582551 Z M13,12 L17,12 L17,14 L11,14 L11,6 L13,6 L13,12 Z"/>
</svg>
