<svg xmlns="http://www.w3.org/2000/svg" width="24" height="24" viewBox="0 0 24 24">
  <path d="M4,13 L8,13 C8.55228475,13 9,13.4477153 9,14 L9,18 C9,18.5522847 8.55228475,19 8,19 L4,19 C3.44771525,19 3,18.5522847 3,18 L3,14 C3,13.4477153 3.44771525,13 4,13 Z M4,5 L8,5 C8.55228475,5 9,5.44771525 9,6 L9,10 C9,10.5522847 8.55228475,11 8,11 L4,11 C3.44771525,11 3,10.5522847 3,10 L3,6 C3,5.44771525 3.44771525,5 4,5 Z M12,5 L20,5 C20.5522847,5 21,5.44771525 21,6 L21,10 C21,10.5522847 20.5522847,11 20,11 L12,11 C11.4477153,11 11,10.5522847 11,10 L11,6 C11,5.44771525 11.4477153,5 12,5 Z M12,13 L20,13 C20.5522847,13 21,13.4477153 21,14 L21,18 C21,18.5522847 20.5522847,19 20,19 L12,19 C11.4477153,19 11,18.5522847 11,18 L11,14 C11,13.4477153 11.4477153,13 12,13 Z M5,7 L5,9 L7,9 L7,7 L5,7 Z M5,15 L5,17 L7,17 L7,15 L5,15 Z M13,17 L19,17 L19,15 L13,15 L13,17 Z M13,9 L19,9 L19,7 L13,7 L13,9 Z"/>
</svg>
