<svg xmlns="http://www.w3.org/2000/svg" width="24" height="24" viewBox="0 0 24 24">
  <path d="M5,5 L5,19 L19,19 L19,5 L5,5 Z M4,3 L20,3 C20.5522847,3 21,3.44771525 21,4 L21,20 C21,20.5522847 20.5522847,21 20,21 L4,21 C3.44771525,21 3,20.5522847 3,20 L3,4 C3,3.44771525 3.44771525,3 4,3 Z M12,13 L15,13 L15,14 L18,14 L18,16 C18,17.1045695 17.1045695,18 16,18 L14,18 C12.8954305,18 12,17.1045695 12,16 L12,13 Z M14,16 L16,16 L16,15 L14,15 L14,16 Z M12,5 L15,5 L15,7 L12,7 L12,5 Z M15,7 L18,7 L18,9 L15,9 L15,7 Z M12,9 L15,9 L15,11 L12,11 L12,9 Z M15,11 L18,11 L18,13 L15,13 L15,11 Z"/>
</svg>
