<svg xmlns="http://www.w3.org/2000/svg" width="95" height="24" viewBox="0 0 95 24">
  <g fill="#2C66C4" fill-rule="evenodd">
    <path d="M6.93015564 15.025713L0 12.8571429 6.85466627 9.28161543C8.08629025 3.96364507 12.8529929 0 18.5454545 0 24.2147841 0 28.9658633 3.93149691 30.2210533 9.21685183L37.1998782 12.8571429 30.1510428 15.06285C28.7971833 20.2066117 24.1143156 24 18.5454545 24 12.9631999 24 8.27120546 20.1883429 6.93015564 15.025713zM13.7142857 16.5194805C15.0914113 16.5194805 16.2077922 15.4030996 16.2077922 14.025974 16.2077922 12.6488484 15.0914113 11.5324675 13.7142857 11.5324675 12.3371601 11.5324675 11.2207792 12.6488484 11.2207792 14.025974 11.2207792 15.4030996 12.3371601 16.5194805 13.7142857 16.5194805zM23.0649351 16.5194805C24.4420607 16.5194805 25.5584416 15.4030996 25.5584416 14.025974 25.5584416 12.6488484 24.4420607 11.5324675 23.0649351 11.5324675 21.6878095 11.5324675 20.5714286 12.6488484 20.5714286 14.025974 20.5714286 15.4030996 21.6878095 16.5194805 23.0649351 16.5194805zM45.6523438 10.21875L49.3085938 3.8671875 54.4179688 3.8671875 47.2460938 14.3554688 45.828125 21 41.2460938 21 42.6523438 14.3554688 39.875 3.8671875 44.5976562 3.8671875 45.6523438 10.21875zM62.4804688 3.59765625C64.5117289 3.59765625 66.0917912 4.17772857 67.2207031 5.33789062 68.349615 6.49805268 68.9140625 8.11717711 68.9140625 10.1953125 68.9140625 12.2734479 68.5253945 14.1738195 67.7480469 15.8964844 66.9706992 17.6191492 65.8984443 18.9394485 64.53125 19.8574219 63.1640557 20.7753952 61.578134 21.234375 59.7734375 21.234375 57.6718645 21.234375 56.0488338 20.6523496 54.9042969 19.4882812 53.7597599 18.3242129 53.1875 16.7070416 53.1875 14.6367187 53.1875 12.5663959 53.5898397 10.6640712 54.3945312 8.9296875 55.1992228 7.19530383 56.2949149 5.87305143 57.6816406 4.96289062 59.0683663 4.05272982 60.6679597 3.59765625 62.4804688 3.59765625zM64.2851562 10.2421875C64.2851562 9.35155805 64.0976581 8.65429939 63.7226562 8.15039062 63.3476544 7.64648186 62.8046911 7.39453125 62.09375 7.39453125 61.3203086 7.39453125 60.6093782 7.72265297 59.9609375 8.37890625 59.3124968 9.03515953 58.7949238 9.93749426 58.4082031 11.0859375 58.0214824 12.2343807 57.828125 13.4101502 57.828125 14.6132812 57.828125 16.5039157 58.6093672 17.4492188 60.171875 17.4492188 60.9140662 17.4492188 61.6035124 17.1250032 62.2402344 16.4765625 62.8769563 15.8281218 63.3769513 14.9531305 63.7402344 13.8515625 64.1035174 12.7499945 64.2851562 11.5468815 64.2851562 10.2421875zM86.6445312 3.8671875L84.3125 14.7890625C83.8515602 16.984386 82.9726627 18.6074166 81.6757812 19.6582031 80.3788998 20.7089896 78.6171986 21.234375 76.390625 21.234375 75.3437448 21.234375 74.4199259 21.0195334 73.6191406 20.5898438 72.8183554 20.1601541 72.201174 19.5585976 71.7675781 18.7851562 71.3339822 18.0117149 71.1171875 17.1484423 71.1171875 16.1953125 71.1171875 15.69531 71.164062 15.1914088 71.2578125 14.6835938L73.5898438 3.8671875 78.171875 3.8671875 75.8867188 14.5664062C75.7773432 15.0976589 75.7226562 15.5468732 75.7226562 15.9140625 75.7226562 16.906255 76.1953078 17.4023438 77.140625 17.4023438 77.8750037 17.4023438 78.4511698 17.1503931 78.8691406 16.6464844 79.2871115 16.1425756 79.6054677 15.3710989 79.8242188 14.3320312L82.0625 3.8671875 86.6445312 3.8671875zM86.84375 21L90.4648438 3.8671875 95.1171875 3.8671875 91.4960938 21 86.84375 21z"/>
  </g>
</svg>
