<?xml version="1.0" encoding="UTF-8"?>
<svg width="64px" height="24px" viewBox="28 0 64 24" version="1.1" xmlns="http://www.w3.org/2000/svg" xmlns:xlink="http://www.w3.org/1999/xlink">
	<g id="Page-1" stroke="none" stroke-width="1" fill="none" fill-rule="evenodd">
		<g id="Artboard" fill="#FFFFFF">
			<path d="M32.0208696,13.7649992 L28,12.5 L31.9770707,10.4142757 C32.6916578,7.31212629 35.4572941,5 38.7600548,5 C42.0493943,5 44.8059658,7.2933732 45.5342258,10.3764969 L49.5833333,12.5 L45.4936058,13.7866625 C44.7080979,16.7871902 41.9911025,19 38.7600548,19 C35.521236,19 32.7989454,16.7765333 32.0208696,13.7649992 Z M35.9570153,14.6363636 C36.7560222,14.6363636 37.4037453,13.9851415 37.4037453,13.1818182 C37.4037453,12.3784949 36.7560222,11.7272727 35.9570153,11.7272727 C35.1580083,11.7272727 34.5102852,12.3784949 34.5102852,13.1818182 C34.5102852,13.9851415 35.1580083,14.6363636 35.9570153,14.6363636 Z M41.382253,14.6363636 C42.1812599,14.6363636 42.828983,13.9851415 42.828983,13.1818182 C42.828983,12.3784949 42.1812599,11.7272727 41.382253,11.7272727 C40.583246,11.7272727 39.9355229,12.3784949 39.9355229,13.1818182 C39.9355229,13.9851415 40.583246,14.6363636 41.382253,14.6363636 Z" id="Combined-Shape"></path>
			<path d="M64.078125,16.7011719 L61.5117188,16.7011719 L60.4921875,13.3144531 L59.9238281,13.6425781 L59.2910156,16.7011719 L57,16.7011719 L58.8105469,8.13476562 L61.1015625,8.13476562 L60.3105469,11.7910156 L60.5332031,11.4453125 C60.8769548,10.886716 61.1308586,10.5058604 61.2949219,10.3027344 L63.0351562,8.13476562 L65.7246094,8.13476562 L62.4960938,12.0839844 L64.078125,16.7011719 Z M69.8496094,8 C70.8652395,8 71.6552706,8.29003616 72.2197266,8.87011719 C72.7841825,9.45019821 73.0664062,10.2597604 73.0664062,11.2988281 C73.0664062,12.3378958 72.8720723,13.2880816 72.4833984,14.1494141 C72.0947246,15.0107465 71.5585972,15.6708961 70.875,16.1298828 C70.1914028,16.5888695 69.398442,16.8183594 68.4960938,16.8183594 C67.4453072,16.8183594 66.6337919,16.5273467 66.0615234,15.9453125 C65.489255,15.3632783 65.203125,14.5546927 65.203125,13.5195312 C65.203125,12.4843698 65.4042949,11.5332075 65.8066406,10.6660156 C66.2089864,9.79882379 66.7568325,9.13769759 67.4501953,8.68261719 C68.1435582,8.22753679 68.9433548,8 69.8496094,8 Z M70.7519531,11.3222656 C70.7519531,10.8769509 70.6582041,10.5283216 70.4707031,10.2763672 C70.2832022,10.0244128 70.0117205,9.8984375 69.65625,9.8984375 C69.2695293,9.8984375 68.9140641,10.0624984 68.5898438,10.390625 C68.2656234,10.7187516 68.0068369,11.169919 67.8134766,11.7441406 C67.6201162,12.3183622 67.5234375,12.906247 67.5234375,13.5078125 C67.5234375,14.4531297 67.9140586,14.9257812 68.6953125,14.9257812 C69.0664081,14.9257812 69.4111312,14.7636735 69.7294922,14.4394531 C70.0478532,14.1152328 70.2978507,13.6777371 70.4794922,13.1269531 C70.6611337,12.5761691 70.7519531,11.9746126 70.7519531,11.3222656 Z M76.7519531,16.7011719 L74.4609375,16.7011719 L75.8496094,10.0273438 L73.9921875,10.0273438 L74.3964844,8.13476562 L80.4199219,8.13476562 L80.0039062,10.0273438 L78.140625,10.0273438 L76.7519531,16.7011719 Z M83.6132812,16.7011719 L81.3222656,16.7011719 L82.7109375,10.0273438 L80.8535156,10.0273438 L81.2578125,8.13476562 L87.28125,8.13476562 L86.8652344,10.0273438 L85.0019531,10.0273438 L83.6132812,16.7011719 Z M86.7421875,16.7011719 L88.5527344,8.13476562 L90.8789062,8.13476562 L89.0683594,16.7011719 L86.7421875,16.7011719 Z" id="Kotti"></path>
		</g>
	</g>
</svg>
