<?xml version="1.0" encoding="UTF-8"?>
<svg width="256px" height="240px" viewBox="0 0 256 240" version="1.1" xmlns="http://www.w3.org/2000/svg" xmlns:xlink="http://www.w3.org/1999/xlink">
    <!-- Generator: Sketch 51.2 (57519) - http://www.bohemiancoding.com/sketch -->
    <title>icontype</title>
    <desc>Created with Sketch.</desc>
    <defs></defs>
    <g id="icontype" stroke="none" stroke-width="1" fill="none" fill-rule="evenodd">
        <path d="M69.6507782,132.128565 L35,121.285714 L69.2733313,103.408077 C75.4314513,76.8182254 99.2649647,57 127.727273,57 C156.073912,57 179.829303,76.6574736 186.105261,103.084237 L220.999391,121.285714 L185.755214,132.31425 C178.985917,158.033058 155.571578,177 127.727273,177 C99.8159995,177 76.3560273,157.941714 69.6507782,132.128565 Z M103.571429,139.597403 C110.457057,139.597403 116.038961,134.015498 116.038961,127.12987 C116.038961,120.244242 110.457057,114.662338 103.571429,114.662338 C96.6858005,114.662338 91.1038961,120.244242 91.1038961,127.12987 C91.1038961,134.015498 96.6858005,139.597403 103.571429,139.597403 Z M150.324675,139.597403 C157.210303,139.597403 162.792208,134.015498 162.792208,127.12987 C162.792208,120.244242 157.210303,114.662338 150.324675,114.662338 C143.439047,114.662338 137.857143,120.244242 137.857143,127.12987 C137.857143,134.015498 143.439047,139.597403 150.324675,139.597403 Z" id="Combined-Shape" fill="#FFFFFF"></path>
    </g>
</svg>